<svg width="95" height="15" fill="none" xmlns="http://www.w3.org/2000/svg"><path d="m7.337 0 1.648 5.07h5.33l-4.312 3.133 1.647 5.07-4.313-3.133-4.312 3.133 1.647-5.07L.359 5.07H5.69L7.337 0ZM27.419 0l1.647 5.07h5.33l-4.312 3.133 1.647 5.07-4.313-3.133-4.312 3.133 1.647-5.07L20.44 5.07h5.331L27.42 0ZM47.5 0l1.648 5.07h5.33l-4.312 3.133 1.647 5.07L47.5 10.14l-4.312 3.133 1.647-5.07-4.313-3.133h5.331L47.501 0ZM67.581 0l1.648 5.07h5.33l-4.312 3.133 1.647 5.07-4.313-3.133-4.313 3.133 1.648-5.07-4.313-3.133h5.33L67.582 0ZM87.663 0l1.647 5.07h5.33l-4.312 3.133 1.647 5.07-4.312-3.133-4.313 3.133 1.647-5.07-4.313-3.133h5.331L87.663 0Z" fill="#FF7A00"/></svg>