<svg width="41" height="42" fill="none" xmlns="http://www.w3.org/2000/svg"><rect x=".135" y=".479" width="40.789" height="40.789" rx="20.395" fill="#262429"/><path d="M17.135 20.925a3.401 3.401 0 1 1 3.4 3.402 3.401 3.401 0 0 1-3.4-3.402Zm-1.839 0a5.24 5.24 0 1 0 10.479 0 5.24 5.24 0 1 0-10.479 0Zm9.462-5.449a1.225 1.225 0 1 0 1.225-1.224 1.224 1.224 0 0 0-1.225 1.224Zm-8.345 13.757c-.995-.046-1.535-.211-1.895-.351a3.173 3.173 0 0 1-1.173-.764 3.147 3.147 0 0 1-.763-1.173c-.14-.36-.306-.9-.351-1.895-.05-1.076-.06-1.4-.06-4.125s.01-3.048.06-4.124c.045-.995.212-1.535.35-1.896.186-.476.407-.816.764-1.174a3.145 3.145 0 0 1 1.173-.763c.36-.14.9-.306 1.895-.351 1.076-.05 1.399-.06 4.122-.06 2.724 0 3.047.011 4.124.06.995.045 1.534.212 1.895.35.476.185.816.407 1.173.764.358.357.578.698.763 1.174.14.36.306.9.351 1.896.05 1.076.06 1.399.06 4.124 0 2.726-.01 3.048-.06 4.125-.045.995-.211 1.536-.35 1.895a3.16 3.16 0 0 1-.764 1.173 3.17 3.17 0 0 1-1.173.764c-.36.14-.9.305-1.895.35-1.076.05-1.399.06-4.124.06-2.724 0-3.047-.01-4.122-.06ZM16.33 10.78c-1.087.049-1.829.221-2.477.474-.671.26-1.24.61-1.807 1.177a4.988 4.988 0 0 0-1.177 1.808c-.252.649-.425 1.39-.474 2.477-.05 1.088-.062 1.436-.062 4.208 0 2.772.011 3.12.062 4.208.05 1.087.222 1.829.474 2.477a4.99 4.99 0 0 0 1.177 1.808 5.017 5.017 0 0 0 1.807 1.178c.65.252 1.39.424 2.477.474 1.088.049 1.436.061 4.206.061 2.771 0 3.12-.011 4.207-.061 1.086-.05 1.828-.222 2.477-.474.67-.262 1.24-.61 1.807-1.178a5.003 5.003 0 0 0 1.177-1.808c.252-.648.425-1.39.474-2.477.05-1.09.061-1.436.061-4.208 0-2.772-.012-3.12-.061-4.208-.05-1.086-.222-1.829-.474-2.477a5.022 5.022 0 0 0-1.177-1.808 4.993 4.993 0 0 0-1.806-1.177c-.65-.253-1.392-.426-2.477-.474-1.088-.05-1.436-.062-4.207-.062-2.77 0-3.119.011-4.207.062Z" fill="#fff"/></svg>