<svg width="42" height="42" fill="none" xmlns="http://www.w3.org/2000/svg"><rect x=".403" y=".479" width="40.789" height="40.789" rx="20.395" fill="#262429"/><path d="M16.105 28.187V17.17h-3.66v11.018h3.66Zm-1.829-12.522c1.276 0 2.07-.846 2.07-1.904-.024-1.081-.794-1.904-2.046-1.904-1.252 0-2.07.823-2.07 1.904 0 1.058.794 1.904 2.022 1.904h.024Zm3.854 12.522h3.66v-6.152c0-.33.023-.659.12-.894.264-.658.866-1.34 1.877-1.34 1.324 0 1.854 1.01 1.854 2.492v5.894h3.658V21.87c0-3.385-1.805-4.96-4.212-4.96-1.974 0-2.84 1.105-3.322 1.857h.024v-1.598H18.13c.048 1.034 0 11.018 0 11.018Z" fill="#fff"/></svg>