<svg width="31" height="31" fill="none" xmlns="http://www.w3.org/2000/svg"><path d="M6.855 20.277c2.86 3.42 6.303 6.111 10.233 8.016 1.496.71 3.497 1.55 5.727 1.695.138.006.27.012.408.012 1.497 0 2.699-.517 3.678-1.58.006-.006.018-.018.024-.03.348-.421.745-.8 1.16-1.202.282-.27.57-.553.847-.841 1.28-1.335 1.28-3.03-.012-4.321l-3.612-3.612c-.612-.637-1.346-.973-2.115-.973-.769 0-1.508.337-2.139.967l-2.151 2.152a11.374 11.374 0 0 0-.595-.313 7.454 7.454 0 0 1-.661-.36c-1.96-1.244-3.738-2.867-5.438-4.952-.86-1.088-1.436-2-1.84-2.932a36.224 36.224 0 0 0 1.605-1.569c.18-.186.367-.372.553-.559.65-.649.998-1.4.998-2.163 0-.763-.343-1.514-.998-2.163l-1.79-1.79c-.21-.211-.41-.415-.614-.626a32.98 32.98 0 0 0-1.22-1.208C8.286 1.318 7.559 1 6.789 1c-.763 0-1.496.318-2.139.931L2.402 4.18a4.618 4.618 0 0 0-1.376 2.956c-.114 1.436.15 2.963.835 4.808 1.052 2.854 2.638 5.504 4.994 8.334ZM2.492 7.261c.072-.799.378-1.466.955-2.043l2.236-2.235c.348-.337.733-.51 1.105-.51.367 0 .74.174 1.082.522.403.373.781.763 1.19 1.178.204.21.415.42.625.637l1.79 1.79c.373.373.565.752.565 1.124 0 .373-.192.751-.564 1.124-.187.186-.373.378-.56.565-.558.565-1.08 1.1-1.658 1.61a8.533 8.533 0 0 0-.03.03c-.499.499-.42.974-.3 1.334l.018.048c.462 1.112 1.105 2.17 2.109 3.432 1.803 2.223 3.702 3.947 5.793 5.276.258.168.535.3.793.432.24.12.463.235.66.36.025.013.043.025.067.037.198.102.39.15.583.15.48 0 .793-.306.895-.409l2.248-2.247c.348-.349.727-.535 1.1-.535.456 0 .829.283 1.063.535l3.623 3.617c.722.722.716 1.503-.018 2.266-.252.27-.516.529-.799.8-.42.408-.86.828-1.256 1.303-.69.745-1.514 1.094-2.578 1.094-.102 0-.21-.006-.312-.012-1.971-.126-3.804-.896-5.18-1.55-3.738-1.81-7.019-4.375-9.74-7.632-2.242-2.698-3.75-5.21-4.748-7.902-.619-1.653-.853-2.98-.757-4.188Z" fill="#fff" stroke="#fff"/></svg>