<svg width="42" height="42" fill="none" xmlns="http://www.w3.org/2000/svg"><rect x=".269" y=".479" width="40.789" height="40.789" rx="20.395" fill="#262429"/><path d="M30.786 14.415a8.53 8.53 0 0 1-2.106.601c.339-.058.837-.669 1.036-.916.302-.373.532-.798.678-1.255 0-.034.034-.083 0-.107a.117.117 0 0 0-.111 0c-.788.427-1.626.753-2.494.97a.174.174 0 0 1-.175-.044 2.417 2.417 0 0 0-.218-.228 4.545 4.545 0 0 0-1.191-.77 4.186 4.186 0 0 0-1.855-.306 4.486 4.486 0 0 0-1.763.485 4.568 4.568 0 0 0-1.394 1.182 4.48 4.48 0 0 0-.848 1.697 4.663 4.663 0 0 0-.043 1.793c0 .102 0 .117-.087.102-3.453-.509-6.286-1.735-8.601-4.367-.102-.117-.155-.117-.238 0-1.007 1.531-.518 3.955.741 5.152.17.16.344.315.528.46a4.322 4.322 0 0 1-1.656-.46c-.097-.063-.15-.029-.155.087a2.863 2.863 0 0 0 0 .485 4.403 4.403 0 0 0 2.712 3.51c.176.075.36.132.547.17a4.95 4.95 0 0 1-1.622.048c-.116-.025-.16.038-.116.15.711 1.939 2.256 2.53 3.39 2.86.155.024.31.024.484.063l-.03.029c-.333.61-1.685 1.022-2.304 1.236a8.278 8.278 0 0 1-3.536.455c-.188-.029-.232-.024-.28 0-.049.025 0 .078.053.127.242.16.484.3.736.436.75.409 1.542.734 2.363.97 4.252 1.172 9.037.31 12.228-2.866 2.509-2.49 3.39-5.928 3.39-9.369 0-.13.16-.208.252-.276a8.32 8.32 0 0 0 1.661-1.735.509.509 0 0 0 .116-.35c0-.072 0-.058-.092-.019Z" fill="#fff"/></svg>