<svg width="735" height="716" fill="none" xmlns="http://www.w3.org/2000/svg"><g opacity=".2" stroke="#7ED957"><path d="m639.52 478.454-.065.081-.006.022c-57.119 72.068-88.982 134.301-105.756 186.1-50.715 6.555-103.496 3.349-155.839-10.676-52.344-14.026-99.656-37.64-140.293-68.695 11.371-53.245 14.919-123.12 1.447-214.149l-.495.074.495-.074c-15.384-103.661 12.819-193.297 79.166-252.456 59.597-53.043 142.865-73.654 217.491-53.658 74.625 19.996 136.41 79.474 161.523 155.215 27.879 84.407 7.479 176.157-57.668 258.216Z"/><path d="M183.573 379.274v.001c9.848 66.305 9.776 119.499 4.59 161.812-93.886-99.066-135.666-243.208-97.726-384.799 58.096-216.82 280.936-345.592 497.804-287.482 216.868 58.11 345.467 281.049 287.371 497.869-37.94 141.592-146.19 245.513-277.086 284.559 16.472-39.289 43.028-85.388 84.758-138.062 77.119-97.312 100.943-207.453 66.826-310.378-30.771-93.455-107.507-166.967-199.983-191.746-92.475-24.779-195.687.517-269.239 66.018l.333.373-.333-.373c-80.826 72.103-115.44 179.352-97.315 302.208Z"/></g></svg>