<svg width="645" height="465" fill="none" xmlns="http://www.w3.org/2000/svg"><path d="M518.856 3H123.875L4 461.601h637L518.856 3Z" stroke="#E1E1E1" stroke-width="5" stroke-miterlimit="10"/><path d="M476.955 3H166.267L71.97 461.601h501.062L476.955 3ZM72.91 193.323h496.194M151.083 76.636h340.985M103.506 312.27h438.41M319.877 76.636v235.632" stroke="#E1E1E1" stroke-width="5" stroke-miterlimit="10"/><path d="M76.308 192.753v-73.636h494.465v73.636M75.559 174.062h494.674" stroke="#E1E1E1" stroke-width="5" stroke-miterlimit="10"/><path d="M125.595 130.263h390.262M125.595 138.188h390.262M125.595 146.125h390.262M125.595 154.052h390.262M125.595 161.978h390.262M125.595 169.914h390.262M125.595 117.988v56.074M134.65 117.988v56.074M143.716 117.988v56.074M152.783 117.988v56.074M161.838 117.988v56.074M170.904 117.988v56.074M179.971 117.988v56.074M189.026 117.988v56.074M198.093 117.988v56.074M207.158 117.988v56.074M216.214 117.988v56.074M225.279 117.988v56.074M234.345 117.988v56.074M243.411 117.988v56.074M252.466 117.988v56.074M261.534 117.988v56.074M270.6 117.988v56.074M279.655 117.988v56.074M288.722 117.988v56.074M297.787 117.988v56.074M306.842 117.988v56.074M315.909 117.988v56.074M324.974 117.988v56.074M334.029 117.988v56.074M343.097 117.988v56.074M352.162 117.988v56.074M361.218 117.988v56.074M370.284 117.988v56.074M379.35 117.988v56.074M388.415 117.988v56.074M397.472 117.988v56.074M406.537 117.988v56.074M415.603 117.988v56.074M424.658 117.988v56.074M433.726 117.988v56.074M442.791 117.988v56.074M451.847 117.988v56.074M460.912 117.988v56.074M469.979 117.988v56.074M479.044 117.988v56.074M488.1 117.988v56.074M497.166 117.988v56.074M506.231 117.988v56.074M515.288 117.988v56.074" stroke="#E1E1E1" stroke-miterlimit="10"/></svg>