<svg width="1316" height="459" fill="none" xmlns="http://www.w3.org/2000/svg"><path d="M671.485 658.139c-4.844-1.558-8.509-5.18-12.342-9.012-1.727-1.684-3.496-3.369-5.307-4.885-6.656-5.727-13.606-12.086-18.913-20.129-9.14-13.644-10.741-29.183-5.097-48.849 3.96-13.602 9.562-26.657 14.911-39.374a536.718 536.718 0 0 0 4.634-10.949c8.171-19.961 17.48-42.659 21.103-66.957 3.074-20.424-2.654-40.89-15.712-56.092-11.92-13.855-28.221-21.604-45.87-21.688h-6.403c-4.001 0-8.677-.042-13.184-.884-10.109-1.727-16.343-7.749-18.996-18.319-1.39-5.432-2.022-10.948-1.854-16.465.253-15.202-.674-29.815-2.822-44.428-4.591-30.867-21.018-52.007-50.167-64.767-6.149-2.611-12.341-5.053-18.575-7.496-10.362-4.126-21.061-8.338-31.297-13.391-25.062-12.212-45.196-30.278-59.812-53.692-2.106-3.369-4.086-6.78-6.108-10.107-5.433-9.138-10.993-18.571-17.522-27.203-9.351-12.718-19.587-18.908-31.339-18.908-7.624 0-15.795 2.61-25.02 8.043-34.834 20.424-55.39 52.555-61.076 95.508-2.654 20.803-1.517 42.027 3.58 64.767a969.404 969.404 0 0 0 2.443 10.528c2.233 9.602 4.592 19.498 5.939 29.394 1.98 14.402 1.264 29.731-2.232 46.912-5.729 28.425-13.226 50.155-23.799 68.389-12.552 21.898-30.706 34.531-53.957 37.647-7.456 1.053-15.08 1.558-22.578 1.558-26.705 0-53.452-6.358-81.8-19.497-4.001-1.811-7.96-3.748-12.004-5.643-12.342-5.938-25.063-12.086-38.584-15.834-10.446-3.032-21.313-4.801-33.233-5.432-2.022-.127-4.002-.295-6.066-.59-2.485-.295-5.097-.674-8.172-.674-.631 0-1.179-.168-2.021-.926v-55.629c.505-.379 1.095-.505 1.769-.505.884 0 1.811.252 2.822.463.59.168 1.137.295 1.685.379 35.635 6.78 65.878 20.129 92.625 40.764 13.353 10.275 24.894 18.444 37.53 25.14 15.501 8.296 31.254 12.802 46.755 13.518 1.18 0 2.401.042 3.581.042 24.051 0 42.5-10.149 54.8-30.278 12.51-20.466 19.207-44.006 19.965-69.821.59-16.928-2.906-33.226-6.529-48.344-5.77-23.792-8.045-43.585-7.076-62.198 1.264-27.751 4.423-60.093 18.828-89.866 5.771-12.254 13.606-24.171 24.515-37.479 3.791-4.632 7.582-9.264 11.331-13.938 11.625-14.402 23.672-29.226 36.645-42.786 7.919-8.38 14.869-14.739 21.862-20.002 15.29-11.328 28.474-25.562 40.478-43.586 13.606-20.213 27.59-37.52 42.796-52.807 10.32-10.15 21.861-19.119 33.065-27.794l5.223-4.085c12.679-9.854 21.272-21.055 26.242-34.236.59-1.348 1.559-2.4 2.696-3.537l.21-.253h63.941c1.221.926 1.938 2.232 2.401 4.127 3.875 15.918 12.973 27.835 21.44 37.395 21.692 24.34 37.614 49.649 48.65 77.148 7.034 17.686 15.29 36.215 27.884 51.88 10.868 13.35 23.252 25.394 36.73 35.67l8.972 6.99c13.774 10.696 28.053 21.729 42.88 31.415 10.446 6.78 21.272 10.527 32.349 11.201.717.042 1.475.042 2.191.042 12.721 0 24.093-5.264 33.739-15.623 8.172-8.549 15.164-19.034 22.577-33.942 7.498-15.033 13.606-30.952 19.545-46.406 2.148-5.517 4.296-11.118 6.486-16.634 6.108-15.54 11.837-27.962 17.902-39.08 6.192-11.412 8.256-22.613 6.15-34.32-3.286-18.698-3.875-37.816-4.086-54.071 0-2.232.253-4.422.505-6.78.295-2.148.632-4.38.632-6.612 0-.926.295-1.558 1.053-2.4h56.106c1.685 1.011 2.78 2.4 3.707 4.674 4.001 9.433 7.708 16.382 11.92 22.53 12.3 17.94 29.738 28.34 53.195 31.752 5.19.842 10.32.884 15.34.884 3.24 0 6.48.042 9.68.253 5.73.42 11.59.674 17.32.884 12.63.463 25.65 1.01 38.2 3.79 22.87 5.096 38.12 22.824 40.82 47.46 1.68 14.739 1.6 26.698-.26 37.647-4.97 29.31-24.13 50.113-51.26 55.671a89.449 89.449 0 0 1-18.45 1.937c-14.07 0-28.22-3.453-41.99-10.317-9.35-4.632-18.41-10.317-27.17-15.792-3.497-2.231-7.035-4.463-10.657-6.611-5.518-3.369-11.584-6.401-18.365-9.349-6.571-2.78-13.353-4.169-20.092-4.169-10.32 0-20.598 3.2-31.507 9.686-12.257 7.285-22.788 18.108-33.15 33.942-9.351 14.402-16.848 30.193-24.051 45.522-2.106 4.464-4.212 8.97-6.403 13.518-4.001 8.464-8.508 15.581-13.816 21.855-7.918 9.181-18.407 13.855-33.107 14.739-1.727.085-3.37.169-5.012.169-21.44 0-41.364-8.549-60.866-26.109a14826.501 14826.501 0 0 0-28.895-25.899c-17.186-15.37-34.287-30.699-51.431-46.196-17.143-15.707-31.802-35.457-43.511-58.745l-.632-1.263c-7.961-15.96-16.217-32.426-29.359-44.933-17.101-16.592-33.529-24.593-51.767-25.351h-1.39c-12.553 0-23.588 5.685-33.571 17.518-4.844 5.685-9.478 12.465-14.658 21.266-14.49 24.383-31.128 47.965-50.925 72.01-9.857 12.002-16.133 25.141-18.576 39.08-2.696 15.623-1.011 31.541 5.476 50.112 9.688 28.173 29.527 47.586 60.613 59.419 9.561 3.664 19.333 6.57 28.895 9.391 6.824 2.022 13.942 4.127 20.808 6.485 21.735 7.496 38.794 23.035 52.147 47.46 3.538 6.569 6.781 13.433 9.898 20.129 2.359 5.011 4.676 10.023 7.203 14.908 8.34 16.423 20.682 30.825 38.836 45.269 20.892 16.887 35.803 30.868 48.398 45.354 13.858 15.96 26.915 33.268 39.847 53.018 8.255 12.676 15.627 17.982 24.683 17.982 6.739.042 14.026-3.032 22.788-7.496 17.059-8.759 30.664-23.498 41.784-45.059 11.752-22.656 20.176-41.606 26.537-59.63 6.36-18.108 10.151-37.016 11.372-56.26.506-9.139.801-18.319 1.053-27.162.211-7.959.464-15.96.885-23.877.463-8.086 1.264-17.603 3.917-26.657 4.592-15.707 15.206-24.93 31.507-27.414 8.13-1.264 15.501-1.895 22.535-1.895 17.944 0 33.361 4.127 47.134 12.633 15.754 9.686 29.106 23.877 39.675 42.111 14.03 24.088 22.37 50.997 24.77 79.928l.59 6.948c1.18 15.202 2.49 30.952 7.75 45.817 4.47 12.634 10.91 26.572 25.06 34.616 4.81 2.821 9.02 4.463 13.36 5.432 1.77.421 3.53.632 5.26.632 8.64 0 15.54-5.096 19.29-14.276 4.17-10.107 5.94-20.971 7.71-31.499l.42-2.695c3.5-20.382 8.09-43.88 19-65.273 8.47-16.465 17.77-30.194 28.47-41.901 10.53-11.454 22.08-22.277 33.2-32.636 3.07-2.864 6.14-5.727 9.22-8.591 12.76-12.044 25.02-25.856 39.85-44.764 16.89-21.73 31.5-39.501 47.97-55.798 8.34-8.253 17.82-16.928 29.74-27.372.42-.379.84-.842 1.35-1.263.84-.843 1.68-1.685 2.4-1.769v100.057c-4.47 8.085-11.37 13.812-18.15 18.781-14.66 10.907-30.46 19.329-45.24 26.783-3.92 1.979-7.84 3.874-11.67 5.769-16.05 7.875-32.6 16.003-47.81 26.278-28.51 19.329-46.16 42.995-54.08 72.515-2.91 10.823-4.38 20.551-4.38 29.731v5.306c0 9.601 0 19.54 1.89 29.394 3.88 20.424 15.08 34.91 33.28 42.953 10.28 4.633 21.1 7.707 31.59 10.654 3.12.843 6.19 1.727 9.27 2.611 16.26 4.759 37.61 11.581 57.62 22.614 24.13 13.349 37.95 34.363 42.2 64.346 2.83 20.087-.5 38.995-9.89 56.303-5.52 10.107-14.2 17.392-27.89 23.667-9.39 4.295-19.5 6.99-29.32 9.601-2.44.632-4.88 1.263-7.37 1.937l-.5.169c-7.67 2.147-15.55 4.379-23.04 7.622-8.05 3.537-14.91 9.475-21.19 18.571-1.26 1.684-2.4 3.242-3.87 4.422h-41.33c-1.39-1.601-1.68-3.875-1.85-6.401l-.25-1.811c-1.31-10.065-3.12-18.024-5.65-25.183-2.78-7.748-7.96-12.633-15.79-14.823-8.97-2.484-18.16-3.495-27.34-4.464-14.07-1.558-28.14-2.779-41.28-3.874-4.8-.379-9.48-.589-13.77-.589-25.99 0-46 6.737-63.1 21.224-8.846 7.58-16.217 17.392-23.167 31.036-1.137 2.232-2.064 3.958-3.707 4.885h-43.553c-.506-.716-.295-1.601.505-3.748 5.097-13.813 10.868-24.046 18.028-32.258 22.409-25.561 47.05-41.606 75.314-49.017 6.53-1.769 13.56-2.653 22.2-2.906h4.97c3.07 0 6.11 0 9.14.042 3.03.042 6.06.127 9.14.127 5.73 0 13.31-.169 21.02-1.222 9.43-1.347 20.13-3.579 27.84-13.433 2.65-3.453 5.31-7.285 6.4-12.086 3.71-17.266 8.47-60.093-27.8-85.444l-5.85-4.001c-8.55-5.937-17.36-12.001-25.57-18.781-21.44-17.813-34.79-41.606-39.64-70.705-2.27-13.56-2.82-26.994-3.24-39.627-.38-16.592-1.26-35.752-7.414-53.945-7.203-21.434-17.565-37.1-31.802-47.964-10.109-7.833-20.976-11.791-32.18-11.791-3.497 0-7.035.378-10.699 1.137-13.774 3.074-23.883 12.254-29.822 27.372-4.676 11.791-5.94 24.172-6.571 33.689-2.191 35.668-6.15 68.347-12.089 99.888-2.612 13.981-3.875 28.425-5.097 42.364l-.505 5.769c-2.443 27.204-10.657 48.807-25.021 66.199-4.801 5.727-10.109 11.033-15.332 16.255-3.243 3.243-6.487 6.527-9.646 9.896-11.415 12.213-19.039 26.531-23.293 43.88-1.474 5.643-2.822 11.37-4.17 17.098-1.937 8.253-3.917 16.802-6.234 25.14-3.875 14.192-9.098 28.13-14.068 41.69-1.559 4.296-3.117 8.549-4.676 12.886-.505 1.39-1.348 2.443-2.822 3.453h-92.92m-.295 2.148h93.847c1.853-1.137 3.327-2.569 4.17-4.843 6.571-18.192 13.731-36.005 18.87-54.744 3.875-14.023 6.782-28.215 10.362-42.28 4.128-16.592 11.457-30.826 22.83-42.954 8.298-8.885 17.27-17.013 25.062-26.277 16.049-19.414 23.251-42.28 25.568-67.336 1.39-16.129 2.612-32.215 5.518-48.007 6.276-33.1 10.109-66.452 12.215-100.099.674-11.328 2.191-22.529 6.361-33.099 5.307-13.434 14.447-22.951 28.347-26.025 3.454-.716 6.824-1.095 10.152-1.095 11.12 0 21.482 4.085 30.917 11.328 15.332 11.749 24.725 28.257 30.959 46.954 5.858 17.224 6.988 35.289 7.418 53.313.37 13.307.92 26.657 3.2 39.88 4.97 29.393 18.19 53.607 40.39 72.01 10.07 8.38 20.85 15.497 31.51 22.866 28.98 20.298 33.19 54.24 26.96 83.297-1.01 4.295-3.37 7.832-5.99 11.201-6.99 8.928-16.42 11.202-26.49 12.676-6.87.926-13.77 1.137-20.68 1.137-6.11 0-12.17-.211-18.24-.211-1.68 0-3.29.042-4.97.126-7.71.211-15.29.927-22.75 2.906-30.323 8.043-55.259 25.646-76.446 49.734-8.298 9.475-13.943 20.845-18.408 32.846-.884 2.401-1.684 4.675.59 6.654h44.986c2.569-1.263 3.791-3.579 5.054-6.064 5.94-11.581 12.932-22.108 22.704-30.404 18.53-15.708 39.51-20.677 61.71-20.677 4.46 0 9.01.21 13.56.589 13.77 1.138 27.55 2.359 41.28 3.791 9.06 1.052 18.03 1.979 26.92 4.421 6.99 1.937 11.79 6.191 14.4 13.518 2.82 8.043 4.42 16.381 5.52 24.719.5 3.664.42 7.454 3.33 10.107h42.96c2.02-1.516 3.5-3.537 5.01-5.559 5.31-7.664 11.67-13.939 20.14-17.56 7.58-3.327 15.5-5.517 23.29-7.706 12.51-3.454 25.06-6.149 36.98-11.623 11.76-5.306 22.2-12.339 28.9-24.551 9.73-17.94 13.01-37.227 10.15-57.651-4.21-29.562-17.9-51.923-43.26-65.904-18.53-10.233-38.12-17.013-58.04-22.782-13.65-4.001-27.55-7.243-40.69-13.139-17.52-7.748-28.22-21.434-32.01-41.437-2.19-11.412-1.77-22.825-1.86-34.321 0-9.896 1.77-19.708 4.38-29.183 8.47-31.584 27.8-54.071 53.2-71.252 18.79-12.676 39.22-21.856 59.23-31.921 15.79-7.959 31.29-16.381 45.57-26.993 7.41-5.433 14.41-11.412 19.04-19.961V76.75c-.72-.421-1.39-.59-2.02-.59-2.19 0-3.67 2.232-5.22 3.496-10.16 8.927-20.22 18.023-29.87 27.541-17.44 17.223-33.02 36.51-48.14 56.008-12.35 15.791-25.23 30.909-39.64 44.511-14.41 13.56-29.11 26.657-42.54 41.354-11.59 12.717-20.85 26.951-28.77 42.448-10.53 20.634-15.33 43.164-19.21 65.904-1.94 11.454-3.58 22.951-8.04 33.731-3.46 8.338-9.57 12.886-17.32 12.886-1.56 0-3.11-.168-4.8-.505-4.55-.927-8.72-2.822-12.72-5.222-12.8-7.201-19.29-19.708-24.13-33.478-5.99-16.803-6.74-34.616-8.3-52.176-2.4-29.141-10.66-56.093-25.02-80.854-10.238-17.603-23.38-32.384-40.355-42.869-15.332-9.433-31.591-12.929-48.272-12.929-7.497 0-15.163.716-22.829 1.938-16.007 2.442-28.138 11.58-33.192 28.888-2.612 8.801-3.496 18.024-4.002 27.162-.842 17.013-.926 33.984-1.937 50.997a205.962 205.962 0 0 1-11.247 55.713c-7.245 20.592-16.427 40.09-26.452 59.293-9.646 18.865-22.282 34.615-40.774 44.132-8.761 4.548-15.627 7.37-21.861 7.37-8.045 0-14.869-4.801-22.872-17.097-12.215-18.656-25.441-36.511-39.931-53.187-14.7-17.013-31.381-31.71-48.693-45.649-15.416-12.254-29.063-26.277-38.33-44.511-5.897-11.581-10.91-23.667-17.102-35.079-12.467-22.824-29.148-40.132-53.325-48.47-16.386-5.559-33.276-9.602-49.577-15.792-27.422-10.486-48.904-27.878-59.35-58.114-5.518-15.918-8.34-32.173-5.433-49.06 2.569-14.528 9.056-27.12 18.154-38.11 18.702-22.74 35.93-46.66 51.093-72.263 4.339-7.412 8.972-14.529 14.448-21.014 8.551-10.064 18.913-16.718 31.97-16.718h1.348c19.924.8 36.098 10.907 50.378 24.72C604.301-26.213 612.43-9.62 620.644 6.76c11.373 22.614 25.82 42.743 44.017 59.377 26.663 24.172 53.536 48.049 80.241 72.095 18.028 16.255 38.499 26.698 62.298 26.698 1.727 0 3.37-.042 5.181-.168 13.142-.8 25.147-4.464 34.54-15.497 5.77-6.78 10.362-14.276 14.195-22.361 9.646-19.877 18.365-40.3 30.369-58.746 8.762-13.391 18.871-25.182 32.434-33.268 9.856-5.937 19.966-9.39 30.412-9.39 6.318 0 12.72 1.263 19.249 4 6.276 2.653 12.258 5.643 18.155 9.18 12.505 7.623 24.725 15.96 37.865 22.53 13.86 6.864 28.22 10.528 42.97 10.528 6.19 0 12.51-.632 18.87-1.98 28.13-5.769 47.85-27.245 52.99-57.397 2.14-12.718 1.68-25.562.21-38.28-2.83-26.108-19.42-44.09-42.46-49.27-18.54-4.126-37.24-3.326-55.86-4.758-8.29-.59-16.63.21-24.89-1.095-21.02-3.074-38.92-12.086-51.725-30.868-4.802-6.948-8.466-14.444-11.794-22.15-1.095-2.78-2.612-4.675-5.055-5.98h-57.622c-1.264 1.305-2.317 2.569-2.317 4.548 0 4.422-1.137 8.843-1.053 13.433.169 18.193.927 36.427 4.044 54.366 2.106 11.876-.295 22.614-5.939 32.89C883.103-22.17 877.333-8.99 871.983 4.57c-8.382 21.056-15.838 42.575-25.947 62.872-5.981 12.086-12.931 23.71-22.156 33.437-8.972 9.643-19.755 14.949-32.223 14.949-.674 0-1.348 0-2.064-.042-11.162-.674-21.608-4.59-31.254-10.864-17.986-11.75-34.666-25.183-51.725-38.322a216.798 216.798 0 0 1-36.351-35.331c-12.299-15.202-20.345-33.142-27.59-51.292-11.794-29.351-28.558-54.787-49.029-77.78-9.351-10.569-17.48-22.066-20.977-36.51-.631-2.484-1.769-4.38-3.791-5.727h-65.498c-1.517 1.6-3.118 2.99-4.002 5.18-5.265 13.981-14.279 24.593-25.568 33.352-13.184 10.275-26.494 20.171-38.499 32.004-16.132 16.213-30.243 34.026-43.09 53.103-11.12 16.718-24.052 31.288-39.931 43.08-7.961 5.98-15.291 12.97-22.156 20.297-17.144 17.94-32.265 37.648-48.061 56.809-9.477 11.58-18.197 24.045-24.768 37.942-13.731 28.341-17.606 59.335-19.038 90.665-1.096 21.309 2.148 42.238 7.16 62.831 3.749 15.623 7.035 31.33 6.487 47.754-.716 24.803-6.95 47.838-19.671 68.726-12.678 20.76-31.17 29.309-52.989 29.309-1.137 0-2.359 0-3.496-.126-16.048-.632-31.507-5.517-45.87-13.181-13.226-6.991-25.357-15.792-37.236-24.972-28.095-21.688-59.56-34.658-93.51-41.143-1.558-.253-3.243-.884-4.886-.884-1.347 0-2.653.421-3.917 1.684v57.44c1.18 1.305 2.401 2.316 4.17 2.316h.38c4.633 0 9.182 1.053 13.773 1.179 11.12.59 21.945 2.232 32.728 5.39 17.565 4.801 33.698 13.771 50.252 21.393 26.705 12.297 54.168 19.666 82.684 19.666 7.582 0 15.164-.505 22.872-1.6 24.346-3.243 42.796-16.592 55.516-38.7 12.258-21.267 19.123-44.849 23.967-69.021 3.202-15.623 4.465-31.583 2.275-47.586-1.896-13.602-5.476-26.867-8.466-40.09-4.76-21.182-6.361-42.322-3.539-64.051 5.518-42.027 25.442-73.653 60.024-93.95 8.508-4.97 16.427-7.707 23.925-7.707 10.698 0 20.428 5.517 29.611 18.024 8.803 11.791 15.838 24.719 23.504 37.184 15.29 24.551 35.719 42.364 60.697 54.534 16.301 8.086 33.444 13.855 49.956 20.972 26.958 11.749 44.228 31.794 48.861 63.082 2.19 14.697 3.075 29.31 2.822 44.091-.168 5.727.506 11.454 1.938 17.013 2.864 11.37 9.646 17.982 20.681 19.919 4.55.8 9.014.884 13.564.884h6.402c37.278.168 65.373 35.921 59.476 75.337-3.539 23.414-12.216 44.891-21.019 66.452-6.866 16.634-14.448 32.931-19.586 50.533-5.097 17.729-5.224 34.7 5.391 50.618 5.392 8.086 12.215 14.444 19.292 20.551 6.107 5.053 10.909 12.043 18.786 14.444v-.253ZM-5.198 175.712c-1.095 0-1.896-.253-2.57-.927V141.98c.8-.715 1.727-1.052 3.117-1.052.8 0 1.559.084 2.401.21.59.042 1.18.084 1.812.169l3.285.084c5.729.253 11.457.463 17.144.463 9.856 0 22.787-.589 35.971-5.18 24.052-8.548 42.248-24.719 55.727-49.48 9.351-17.266 14.49-37.185 16.217-62.578.927-15.497.295-30.657-.463-46.07-.674-16.634-1.517-31.625-4.971-46.701-3.201-13.728-11.036-22.824-23.42-27.162-14.616-5.011-29.948-6.78-43.174-8.085-10.32-.927-20.555-1.095-30.075-1.095h-7.75l-7.708.042c-4.086 0-8.256 0-12.468.674-.843.168-1.685.252-2.485.252-1.39 0-2.36-.379-3.202-1.137v-9.011c.042-7.665.085-15.329-.042-22.993 0-1.095.042-1.474 0-1.516.084 0 .464-.084 1.39-.084 54.295.042 108.716.042 163.011.042 6.318 3.579 12.973 5.432 19.755 5.432 3.748 0 7.624-.589 11.457-1.684 2.106-.59 4.212-1.011 6.36-1.39 3.075-.632 6.276-1.263 9.351-2.358h50.209c.379 1.052-.169 2.021-1.727 4.084-8.087 10.823-17.481 19.919-27.969 26.91-3.327 2.232-6.781 4.463-10.151 6.653-9.014 5.854-18.323 11.876-26.916 18.866-11.836 9.644-19.923 23.161-25.441 42.49-4.802 16.634-6.318 33.942-7.835 50.745l-.168 1.516c-2.359 26.066-6.361 53.692-19.882 79.127-4.465 8.338-9.898 16.465-16.048 24.256-22.83 28.888-53.073 47.122-89.887 54.281-9.14 1.727-19.208 3.285-31.76 4.885-.421.085-.842.085-1.18.085m0 2.147c.464 0 1.012 0 1.517-.084 10.657-1.39 21.271-2.99 31.844-4.969 36.393-7.033 67.184-24.72 91.151-55.04 6.108-7.664 11.583-15.834 16.259-24.55 13.184-24.804 17.607-52.008 20.134-79.928 1.558-17.476 3.033-34.91 7.877-51.881 4.633-16.17 11.752-30.741 24.767-41.395 11.668-9.56 24.557-17.14 36.899-25.436 11.035-7.411 20.429-16.634 28.474-27.414 1.516-1.979 3.538-4.464 1.179-7.454h-51.767c-5.181 1.895-10.573 2.4-15.922 3.874-3.665 1.053-7.287 1.558-10.91 1.558-6.571 0-12.973-1.768-19.207-5.432-54.337 0-108.926 0-163.432-.042-2.906 0-3.58.674-3.538 3.79.21 10.907.042 21.856.042 32.721 1.517 1.979 3.37 2.484 5.308 2.484.926 0 1.895-.084 2.822-.253 4.085-.673 8.13-.673 12.13-.673 5.182 0 10.32-.042 15.501-.042 10.025 0 19.966.168 29.865 1.094 14.447 1.39 28.853 3.243 42.71 7.96 11.795 4.126 18.998 12.633 21.988 25.603 3.496 15.287 4.297 30.868 4.886 46.365.801 15.328 1.39 30.488.464 45.817-1.475 21.856-5.645 42.659-15.964 61.693-12.637 23.203-30.286 39.879-54.59 48.47-11.625 4.085-23.42 5.053-35.256 5.053-6.739 0-13.563-.294-20.344-.589-1.475-.084-2.907-.379-4.339-.379-1.937 0-3.706.463-5.265 2.358v34.405c1.306 1.727 2.906 2.274 4.675 2.274l.043.042Z" fill="#EEECF1"/><path d="M275.921 658.139c1.601-13.097 5.476-26.53 12.468-43.206 7.961-19.287 18.66-37.311 29.064-54.745 3.201-5.306 6.36-10.739 9.477-16.087l1.095-1.937c8.551-15.034 17.481-30.657 27.885-44.638 23.419-31.289 50.167-48.807 81.758-53.397 4.633-.716 9.182-1.053 13.394-1.053 18.365 0 32.939 6.275 44.691 19.077 7.287 8.127 11.205 18.697 14.532 28.888 6.15 17.897 9.773 36.89 13.184 55.376l.843 4.296c5.223 28.467 13.226 53.523 24.515 76.727 4.801 9.896 8.255 20.213 10.319 30.699h-46.375c-1.264-1.306-1.896-2.485-2.149-4.211l-.505-3.453c-2.822-19.54-5.729-39.796-7.034-59.841l-.464-6.864c-.842-13.265-1.727-26.951-3.664-40.342-2.57-17.098-6.782-36.806-19.25-53.271-9.688-12.928-22.703-20.003-38.71-21.182a60.284 60.284 0 0 0-4.759-.169c-17.397 0-34.035 7.58-50.883 22.993-14.069 12.928-23.42 29.562-31.718 45.48-7.245 13.729-14.869 27.457-22.282 40.764-4.633 8.464-9.351 16.887-13.942 25.351-10.067 18.697-15.964 33.773-19.123 48.891-.632 3.117-1.264 4.885-2.907 5.896h-19.544m-2.401 2.148h22.493c3.075-1.474 3.875-4.464 4.465-7.623 3.664-17.307 10.741-33.057 18.912-48.259 12.047-22.151 24.473-43.88 36.183-66.157 8.55-16.297 17.733-32.426 31.296-44.891 14.321-13.181 30.328-22.403 49.451-22.403 1.516 0 3.032.042 4.591.211 14.953 1.052 27.632 7.622 37.109 20.213 11.583 15.329 16.048 33.479 18.828 52.344 2.275 15.582 3.075 31.289 4.128 47.081 1.39 21.308 4.549 42.364 7.582 63.462.463 2.695 1.601 4.421 3.37 6.064h49.788c-2.107-11.876-5.855-23.162-10.952-33.774-11.752-24.129-19.46-49.523-24.346-76.179-3.791-20.171-7.414-40.553-14.069-60.009-3.538-10.696-7.582-21.266-15.037-29.562-13.142-14.444-29.148-19.876-46.25-19.876-4.465 0-9.056.421-13.731 1.095-34.793 5.053-61.582 25.393-83.19 54.281-10.952 14.697-20.008 30.741-29.149 46.702-13.436 23.371-28.179 45.859-38.625 71.126-6.15 14.696-11.204 29.941-12.889 46.196l.042-.042ZM1322.77-3.177c-2.82-3.496-5.27-7.286-7.71-10.991-1.69-2.57-3.33-5.096-5.06-7.623l-3.58-5.01c-6.06-8.676-12.3-17.561-19.79-25.394-12.01-12.339-27.13-21.898-44.95-28.34-7.49-2.654-15.03-5.096-22.62-7.58-6.99-2.275-14.06-4.591-21.06-7.076-18.19-6.527-29.94-22.95-31.08-42.995h43.17c3.12 1.474 5.73 3.79 8.6 6.527 7.75 7.243 17.05 10.991 27.46 14.823 3.92 1.474 7.83 2.864 11.75 4.211 12.55 4.422 25.61 9.012 37.49 16.129 8.93 5.222 16.85 12.086 23.88 18.15 1.05.926 1.69 2.358 2.4 3.959.3.842.72 1.684 1.14 2.484v68.768m2.15 5.685v-75c-1.52-2.485-2.02-5.56-4.34-7.496-7.71-6.654-15.33-13.223-24.14-18.36-15.71-9.392-32.81-14.234-49.57-20.509-9.48-3.495-19-7.201-26.75-14.402-2.95-2.822-5.9-5.475-9.56-7.075h-45.87c.38 21.772 12.72 40.048 32.56 47.165 14.49 5.095 29.19 9.475 43.68 14.655 16.59 5.98 31.59 14.907 44.14 27.835 8.8 9.138 15.8 19.75 23.21 30.152 5.48 7.706 10.02 16.213 16.64 23.035Z" fill="#EEECF1"/><path d="M141.174 658.139c-1.179-.716-1.98-1.811-2.359-3.453-5.097-19.666-14.742-37.395-29.569-54.324-13.858-15.792-28.516-27.078-44.733-34.363-8.55-3.748-17.776-5.559-28.222-5.559-5.728 0-11.836.506-19.123 1.601a346.315 346.315 0 0 0-11.541 2.105c-3.37.674-6.74 1.348-10.151 1.853-.506.126-1.011.211-1.475.211-.8 0-1.305-.211-1.769-.632V421.599h.674c30.917 0 59.56 7.286 87.57 22.319 24.684 13.35 51.136 21.519 78.6 24.383 5.897.631 11.625.926 17.059.926 12.889 0 24.472-1.768 35.466-5.306 17.101-5.516 30.623-17.013 40.1-33.984 14.321-25.561 23.209-54.197 27.126-87.675 1.601-14.276.506-29.31-3.707-48.597a401.933 401.933 0 0 0-2.822-11.875c-2.401-9.938-4.886-20.214-5.939-30.531-4.549-44.301 4.128-79.59 26.495-107.931 14.279-17.982 28.263-28.72 44.017-33.9 5.897-1.979 10.909-2.906 15.374-2.906 10.151 0 18.112 4.885 27.547 17.013 6.571 8.254 12.131 17.561 17.565 26.573 4.633 7.748 9.477 15.834 14.953 23.245 10.152 14.023 23.083 25.688 39.468 35.668 13.605 8.254 28.306 14.066 42.543 19.666 6.655 2.653 13.563 5.391 20.218 8.296 21.524 9.475 35.088 22.319 42.712 40.343 5.181 12.423 7.034 25.983 8.382 37.69.674 5.979.674 12.254.632 18.234-.043 7.369-.085 14.865 1.137 22.361 3.285 20.803 12.047 25.014 29.19 26.277 2.949.211 5.939.253 8.846.295 6.739.084 13.015.211 19.418 2.022 24.978 6.864 44.017 33.015 44.227 60.682.253 21.013-6.276 40.595-12.636 57.019-4.086 10.485-8.34 20.803-12.637 31.12-3.58 8.717-7.203 17.434-10.656 26.193-5.392 13.729-8.13 25.141-8.762 35.795-.632 10.78 2.654 21.013 10.446 32.173 4.423 6.485 10.11 11.454 15.543 16.255 2.401 2.148 4.76 4.211 7.035 6.485 2.78 2.695 5.56 5.432 8.466 8.17h-103.24s-.295-.379-.505-.506c-.843-.884-1.306-1.347-1.475-2.232-3.369-13.981-9.224-26.951-14.911-39.5l-.842-1.811c-10.952-23.835-16.385-49.986-20.598-72.558-3.538-18.908-7.666-39.037-14.742-58.113-10.025-27.162-28.348-40.343-57.833-41.606h-3.496c-24.515 0-47.513 9.812-72.365 30.952-15.585 13.349-26.873 29.941-39.004 50.659l-4.844 8.128c-11.331 19.118-23.041 38.911-33.95 58.787-11.584 21.224-19.208 41.606-23.251 62.199-.464 2.232-.927 4.211-2.191 5.643h-30.327c-.716-1.306-.421-2.78.21-5.012l.295-1.137c3.033-12.043 7.035-23.624 11.878-34.236 24.684-54.534 47.387-93.993 73.713-127.934 26.453-34.195 60.276-59.504 100.629-75.169 12.762-5.011 26.578-8.97 37.656-12.17 18.997-5.559 32.139-18.108 40.268-38.532 7.667-19.203 11.457-35.753 12.047-51.965.674-18.487-6.107-33.984-20.176-45.986-10.32-8.801-21.945-15.118-33.276-21.224l-4.465-2.485-2.991-1.684c-13.057-7.159-26.536-14.528-38.583-23.877-10.446-8.254-20.85-18.613-32.728-32.636-6.403-7.707-12.721-14.403-19.418-20.34-8.046-7.033-17.102-10.781-26.284-10.781-12.131 0-24.178 6.401-33.95 18.15-14.195 17.14-19.671 38.364-17.27 66.831 1.137 12.675 4.212 24.761 7.835 37.984 6.36 23.162 6.95 46.196 1.684 70.495-8.382 38.321-17.396 68.599-28.516 95.171-10.572 25.646-29.401 40.975-57.58 46.912-10.783 2.274-22.114 3.243-33.023 4.169l-3.033.211-6.782.505c-12.51.927-25.483 1.895-38.077 5.643-3.749 1.137-8.593 2.906-13.016 6.569-6.782 5.643-9.14 13.139-7.287 22.951 1.98 10.233 6.782 18.866 10.699 25.225 6.402 10.486 13.816 20.34 21.018 29.815 3.539 4.674 7.035 9.39 10.489 14.065 11.33 15.834 22.619 33.394 28.348 54.618l.252.927c.59 2.147.927 3.537.464 4.843h-42.206m-.506 2.147h43.975c1.938-2.821.843-5.643.085-8.464-5.645-20.761-16.596-38.364-28.727-55.377-10.447-14.486-21.946-28.298-31.381-43.795-4.675-7.623-8.677-15.413-10.446-24.509-1.559-8.338-.042-15.329 6.571-20.845 3.749-3.117 7.919-4.885 12.299-6.191 14.532-4.337 29.528-4.842 44.396-6.064 12.216-.968 24.389-1.853 36.351-4.421 27-5.727 47.598-20.382 59.097-48.176 12.763-30.741 21.482-62.872 28.643-95.55 5.223-24.046 4.843-47.797-1.727-71.463-3.328-12.423-6.571-24.804-7.709-37.648-2.022-24.045 1.264-46.575 16.807-65.314 9.14-10.992 20.555-17.35 32.265-17.35 8.34 0 16.891 3.2 24.894 10.275 6.866 6.148 13.184 12.886 19.123 20.087 10.151 12.002 20.892 23.372 33.107 32.931 13.1 10.149 27.464 17.813 41.827 25.772 12.847 7.033 25.905 13.644 37.404 23.456 13.395 11.412 20.134 26.067 19.46 44.301-.632 17.94-5.391 34.868-11.878 51.292-7.498 18.782-19.924 31.71-38.836 37.226-12.679 3.664-25.442 7.37-37.867 12.213-40.142 15.623-74.345 40.679-101.513 75.8-30.286 39.037-53.453 82.875-74.008 128.397-5.054 11.118-9.014 22.698-12.047 34.616-.716 2.99-2.021 5.98.506 8.801h32.265c2.148-1.853 2.822-4.59 3.37-7.285 4.338-21.982 12.51-42.322 23.04-61.651 12.426-22.572 25.652-44.722 38.752-66.873 10.783-18.403 22.367-36.174 38.583-50.028 20.893-17.813 43.68-30.531 70.975-30.531 1.137 0 2.232 0 3.37.084 29.611 1.137 46.502 14.613 55.937 40.132 6.95 18.698 10.952 38.195 14.658 57.777 4.676 25.141 10.11 49.944 20.766 73.105 5.982 13.35 12.089 26.531 15.585 40.933.379 2.147 1.98 2.99 3.117 4.421h109.432l-12.257-11.875c-7.498-7.285-16.133-13.391-22.283-22.403-6.402-9.18-10.74-19.203-10.067-30.742.674-12.254 4.17-23.877 8.593-35.12 7.582-19.203 15.754-38.111 23.251-57.356 7.203-18.445 13.016-37.395 12.805-57.861-.295-28.762-19.755-55.461-45.828-62.662-9.562-2.695-19.081-1.768-28.685-2.4-17.101-1.263-24.262-5.432-27.252-24.509-2.191-13.433-.211-26.993-1.727-40.553-1.517-13.139-3.496-26.109-8.551-38.279-8.761-20.803-24.768-33.058-43.849-41.438-20.85-9.18-42.711-15.834-62.508-27.835-14.953-9.138-28.137-20.382-38.836-35.079-11.794-15.96-20.218-34.405-32.602-49.944-9.225-11.791-17.607-17.771-29.19-17.771-4.76 0-10.025 1.011-16.049 3.032-18.491 6.064-32.854 19.287-44.985 34.616-25.063 31.709-31.086 69.231-26.958 109.405 1.516 14.528 5.686 28.509 8.803 42.659 3.454 15.833 5.518 31.709 3.665 47.964-3.581 30.952-11.836 60.177-26.874 86.834-8.929 16.044-21.945 27.541-38.92 33.015-11.415 3.706-23.041 5.222-34.792 5.222-5.56 0-11.205-.379-16.849-.927-27.337-2.863-53.284-10.906-77.799-24.129-28.01-15.034-57.37-22.53-88.539-22.53h-2.78v146.927c1.095 1.473 2.4 1.895 3.917 1.895.59 0 1.18-.043 1.812-.169 7.244-1.221 14.405-2.821 21.65-3.958 6.318-.969 12.552-1.601 18.828-1.601 9.225 0 18.365 1.474 27.337 5.433 17.102 7.706 31.339 19.413 44.017 33.773 13.521 15.413 23.799 32.931 29.106 53.481.59 2.232 1.811 3.959 3.917 5.012l-.042-.211ZM768.069 658.139c1.769-4.969 3.538-9.896 5.307-14.866 7.161-19.708 14.532-40.132 19.207-61.482 2.781-12.802 5.645-26.067 10.447-38.532 3.327-9.054 8.382-17.181 14.911-24.298 4.633-5.053 9.393-9.981 14.195-14.865 2.822-2.906 5.686-5.854 8.466-8.76 17.523-18.192 27.59-40.174 29.991-65.525 3.117-33.31 8.382-67.041 13.141-96.014 2.233-13.307 3.16-26.993 4.128-40.258l.59-8.549c1.011-13.433 2.148-28.762 6.74-42.953 5.644-17.476 21.187-29.141 38.625-29.141 2.148 0 4.339.168 6.402.505 20.766 3.537 36.351 16.424 49.241 40.469 8.298 15.539 12.72 33.479 14.03 56.471.25 4.885.46 9.896.67 14.866.46 14.023 1.01 28.635 3.79 42.785 6.15 31.12 21.74 55.924 46.38 73.821 3.32 2.4 6.65 4.801 10.02 7.201 6.15 4.38 12.47 8.843 18.45 13.602 15.54 12.254 23.76 28.13 25.23 48.638.93 11.328.59 20.003-1.05 28.383-2.4 12.929-9.82 21.477-22.12 25.436-6.57 2.19-14.06 3.242-23.46 3.453h-14.23c-2.87-.126-5.77-.126-8.6-.126-5.18 0-11.87.126-18.83.842-17.56 1.768-34.998 8.464-53.279 20.424-18.912 12.338-32.391 25.14-42.206 40.132-6.486 9.685-10.825 18.992-13.352 28.299h-51.22c-.842-.969-.927-2.359-1.053-4.422v-1.053c-.084-3.032-.084-5.98 0-8.97.126-5.853.211-11.833-.969-17.813l-.252-1.263c-.801-4.085-1.77-9.012-7.035-10.949-1.095-.295-2.148-.505-3.201-.505-4.338 0-7.498 3.032-10.236 5.853-9.056 9.602-15.542 19.708-19.965 30.868l-.674 1.726c-.927 2.78-1.896 5.222-3.96 6.57h-44.227m-3.033 2.147h47.808c3.707-1.979 4.633-6.064 6.066-9.685 4.549-11.454 11.246-21.309 19.544-30.11 2.401-2.569 5.181-5.179 8.635-5.179.8 0 1.601.168 2.485.463 4.591 1.6 5.013 6.359 5.897 10.528 1.769 8.801.59 17.602.927 26.488.168 2.779-.127 5.643 2.359 7.495h53.705c2.611-10.738 7.497-20.339 13.436-29.309 10.91-16.592 25.568-29.099 41.616-39.5 16.049-10.528 33.274-18.193 52.314-20.13 6.19-.631 12.34-.8 18.62-.8 5.73 0 11.46.169 17.18.169 1.9 0 3.75 0 5.65-.085 8.25-.126 16.34-.926 24.09-3.453 12.64-4.127 20.98-12.928 23.63-27.119 1.81-9.602 1.81-19.077 1.1-28.889-1.56-21.266-10.32-37.731-26.08-50.196-9.26-7.328-19.08-13.897-28.55-20.846-24.31-17.686-39.43-41.774-45.54-72.515-3.7-18.992-3.37-38.195-4.42-57.398-1.14-20.298-4.8-39.627-14.279-57.314-11.415-21.392-26.579-37.436-50.672-41.563-2.317-.379-4.592-.59-6.824-.59-18.112 0-34.666 12.044-40.732 30.615-4.465 14.107-5.686 28.846-6.781 43.459-1.137 16.213-1.938 32.594-4.676 48.638-5.181 31.921-10.109 63.841-13.142 96.141-2.358 25.014-12.468 46.701-29.358 64.219-7.498 7.875-15.29 15.624-22.704 23.667-6.655 7.201-11.836 15.539-15.374 25.014-4.844 12.633-7.666 25.856-10.488 38.995-5.94 27.204-16.386 52.766-25.442 78.706v.084ZM791.826 115.871c-3.875 0-7.961-.505-12.257-1.516-8.72-1.979-17.27-5.937-26.032-12.128-21.187-14.823-43.553-31.036-63.687-49.312-16.006-14.613-27.801-30.152-36.225-47.544-3.454-7.074-6.613-14.444-9.688-21.519-4.759-10.822-9.603-22.066-15.374-32.594-7.245-13.56-16.512-26.783-28.264-40.51-5.644-6.57-12.215-14.403-18.028-22.741-4.97-7.159-8.55-15.707-10.951-26.151h66.173c1.685 1.011 2.021 2.695 2.569 5.559l.169.884c6.065 31.541 14.279 65.02 25.146 102.33 5.855 19.961 14.869 37.1 26.747 50.913 7.582 8.59 16.175 15.96 25.652 21.772 17.691 10.738 33.15 16.718 48.651 18.865 1.348.169 2.695.253 4.043.253 14.069 0 25.147-10.107 27.421-25.14 1.685-10.15.843-20.34-.042-30.152l-.421-5.095c-3.117-37.437.253-70.032 10.488-99.467 3.876-10.991 10.067-21.014 16.259-30.952.632-.927 1.222-1.979 1.769-2.99 1.517-2.695 2.907-5.222 5.223-6.864h61.751c0 2.484-.253 5.011-.506 7.411-.21 2.401-.421 4.675-.505 7.075-.127 20.803 1.263 39.037 4.043 55.797 1.98 11.37.211 21.856-5.433 32.047-9.604 17.56-17.017 36.553-24.178 54.913l-.716 1.938-1.98 5.18c-7.919 20.423-16.174 41.605-28.263 60.092-6.276 9.433-12.342 16.255-19.292 21.477-7.287 5.474-15.164 8.127-24.22 8.127m0 2.148c8.972 0 17.523-2.569 25.441-8.549 7.919-5.937 14.238-13.56 19.798-21.982 13.226-20.297 21.65-43.08 30.453-65.693 7.498-19.245 14.996-38.532 24.81-56.556 5.729-10.444 7.75-21.477 5.686-33.478-3.116-18.319-4.127-36.89-4.001-55.419.084-5.474 1.264-10.991.927-16.634h-64.488c-4.002 2.569-5.687 7.075-8.088 10.823-6.276 9.938-12.552 20.087-16.511 31.373-11.205 32.425-13.437 66.072-10.573 100.351.927 11.538 2.401 23.077.506 34.7-2.191 14.233-12.511 23.372-25.358 23.372-1.263 0-2.485-.085-3.791-.253-17.312-2.4-32.897-9.56-47.808-18.571-9.393-5.77-17.733-12.928-25.146-21.393-12.426-14.444-20.85-31.415-26.284-50.112-9.814-33.605-18.491-67.547-25.146-102.162-.632-3.243-.927-6.57-4.255-8.17h-69.374c2.19 10.57 5.686 20.635 11.836 29.52 5.644 8.043 11.836 15.54 18.197 22.95 10.656 12.424 20.134 25.436 28.01 40.09 9.436 17.35 16.386 36.09 25.021 54.072 9.14 18.908 21.861 34.615 36.772 48.175 20.008 18.234 41.911 34.152 63.898 49.523 8.256 5.853 16.933 10.275 26.747 12.465 4.297 1.011 8.551 1.558 12.721 1.558ZM1321 660.37l-.21-2.147c-20.98-.127-41.91-.169-62.89-.169h-31.51l-28.39.042c3.75-8.927 10.53-15.791 20.77-20.803 9.86-4.8 20.64-7.496 31.13-10.149 3.07-.8 6.15-1.516 9.22-2.358 7.71-2.105 15.33-4.843 23.42-8.464 17.78-7.917 29.36-22.53 34.46-43.501 6.86-28.552 2.15-55.461-14.2-79.885-5.22-7.875-12.63-14.487-23.25-20.845-15.84-9.475-33.78-16.845-58.25-23.92-3.08-.884-6.19-1.768-9.35-2.653-10.66-2.905-21.7-6.064-32.14-10.275-20.43-8.296-31.85-22.824-34.88-44.554-5.48-38.574.42-70.073 18.03-96.35 12.64-18.782 29.44-33.774 50-44.68 12.3-6.612 24.98-13.097 37.23-19.414 8.76-4.464 17.61-8.97 26.37-13.602 14.28-7.664 26.16-15.539 36.39-24.13 1.81-1.558 3.46-3.368 4.97-5.095 1.56-1.769 3.08-3.453 4.76-4.843v101.446c-.29.211-.63.295-1.05.295-.63 0-1.35-.21-2.15-.421l-.59-.084c-3.32-.716-6.57-1.558-9.85-2.358-10.28-2.485-20.9-5.096-31.72-5.98-5.39-.421-10.36-.632-15.29-.632-26.29 0-47.6 6.864-65.12 20.972-18.53 15.033-28.31 34.531-29.15 57.987-.93 28.678 11.67 49.354 36.52 59.966 18.66 7.917 37.83 12.002 56.95 12.002 12.04 0 24.3-1.6 36.39-4.801 4.42-1.179 8.76-2.821 12.93-4.379 2.82-1.053 5.65-2.106 8.51-3.032l.63-.211c.85-.252 1.6-.505 2.24-.505.21 0 .42 0 .71.21v65.694c0 58.998-.04 118.038.04 176.952 0 1.769-.17 2.316-.21 2.4 0 0-.29.169-1.6.169v2.147m0 0c3.5 0 3.96-1.137 3.96-4.674-.12-81.106-.04-162.339-.04-243.572-.88-1.053-1.85-1.39-2.86-1.39-1.14 0-2.36.464-3.54.885-7.08 2.316-14.03 5.306-21.27 7.285-12.09 3.243-24.06 4.759-35.89 4.759-19.08 0-37.83-4.001-56.11-11.834-25.35-10.78-36.01-31.499-35.13-57.861.8-23.582 10.91-42.321 28.31-56.387 19.25-15.539 41.02-20.55 63.77-20.55 5.01 0 10.03.253 15.12.674 13.99 1.137 27.55 5.179 41.2 8.296 1.09.21 2.19.589 3.24.589 1.14 0 2.19-.379 3.16-1.516V178.785c-5.52 2.78-8.64 8.38-13.23 12.297-11.16 9.39-23.29 17.055-36.01 23.877-21.1 11.117-42.5 21.645-63.6 33.015-20.22 10.738-37.53 25.688-50.76 45.312-19.88 29.604-23.38 62.956-18.41 97.909 3.25 23.161 15.97 38.068 36.18 46.238 13.61 5.474 27.76 8.97 41.71 12.97 19.92 5.854 39.51 12.802 57.7 23.667 8.72 5.264 16.85 11.622 22.58 20.297 15.79 23.625 20.76 49.776 13.86 78.159-4.81 19.666-15.34 34.11-33.28 42.069-7.5 3.327-15.25 6.148-23.12 8.296-13.74 3.706-27.8 6.359-40.74 12.634-10.32 5.137-18.87 12.801-22.95 24.929h62.97c20.98 0 41.91 0 62.89.127h.21l.08-.169ZM17.463 140.128c-9.688 0-17.776-.295-25.231-.927v-29.562c.505-.505 1.137-.716 2.148-.716.632 0 1.264.084 2.148.169 2.865.463 5.729 1.01 8.593 1.516 8.72 1.516 17.691 3.116 26.79 3.116h.673c26.284-.084 46.418-12.97 59.77-38.321 6.403-12.128 9.689-25.815 10.068-41.86.379-21.855-2.612-40.257-9.056-56.302-6.992-17.35-18.829-29.394-35.087-35.879-10.489-4.295-21.904-6.57-37.025-7.411l-3.539-.21c-6.486-.38-13.184-.717-19.88-.717h-2.023c-1.685 0-2.78-.295-3.538-1.095v-33.815c8.803-.716 17.607-.842 25.147-.842h16.132c20.85.084 39.51 2.232 57.033 6.611 6.823 1.6 14.026 3.916 20.092 9.644 8.34 7.622 10.488 17.94 12.089 28.762 1.474 9.77 1.937 19.792 2.443 29.435.21 5.012.463 9.939.842 14.908 1.011 13.602.885 27.583-.253 42.743-3.664 46.617-21.987 79.085-56.106 99.383-12.468 7.285-26.283 11.117-41.026 11.243a958.67 958.67 0 0 1-11.12.085m0 2.147c3.707 0 7.456-.042 11.162-.084 14.911-.168 29.19-4.001 42.08-11.581 37.024-21.982 53.705-57.355 57.159-101.025 1.095-14.275 1.305-28.677.252-43.08-1.095-14.865-1.137-29.73-3.285-44.511-1.685-11.118-3.918-21.94-12.763-30.026-6.15-5.769-13.395-8.338-21.019-10.148-18.87-4.675-38.162-6.57-57.58-6.612-5.391 0-10.74-.042-16.132-.042-9.057 0-18.155.168-27.253 1.053v36.552c1.474 1.98 3.496 2.443 5.686 2.443h2.022c7.75 0 15.5.505 23.293.926 12.468.674 24.6 2.443 36.31 7.244 15.921 6.316 27.252 18.15 33.95 34.657 7.075 17.603 9.224 36.342 8.929 55.46-.295 14.613-3.117 28.3-9.814 40.933-12.679 23.961-31.423 37.058-57.875 37.184h-.674c-11.879 0-23.42-2.779-35.088-4.59-.842-.084-1.684-.21-2.443-.21-1.558 0-3.032.421-4.296 2.105v32.257c9.14.885 18.239 1.137 27.379 1.137v-.042ZM1072.48 41.208V39.06c-2.11 0-4.3-.168-6.49-.421-17.31-2.106-32.13-11.16-46.46-28.51-3.32-4.126-6.61-8.59-10.02-13.77-3.71-5.769-5.01-12.633-3.79-20.34 1.05-6.106 5.94-9.264 11.33-12.212 11.25-5.895 24.35-8.927 40.94-9.433 11.92.421 24.52 1.98 35.34 10.317 20.56 16.003 19.71 43.796 11.16 56.935-7.58 11.665-18.02 17.392-32.01 17.392v2.148m0 0c13.65 0 25.36-5.264 33.82-18.403 9.14-14.107 9.65-43.206-11.75-59.756-10.95-8.506-23.46-10.317-36.47-10.78-14.49.463-28.77 2.779-42.04 9.685-5.44 2.99-11.25 6.57-12.43 13.729-1.18 7.58-.21 15.16 4.09 21.855 3.24 4.843 6.57 9.56 10.23 13.981 12.81 15.581 28.01 26.91 47.77 29.31 2.32.252 4.59.42 6.78.42v-.041Z" fill="#EEECF1"/><path d="M757.96 451.751c-7.203 0-13.394-3.916-18.997-11.875-2.822-4.001-5.644-8.044-8.466-12.086-8.087-11.791-16.47-23.877-25.652-34.995-11.247-13.77-22.493-25.772-34.203-36.594-5.728-5.306-11.836-10.276-17.733-15.118-8.972-7.454-18.323-15.076-26.452-23.92-7.961-8.59-14.701-18.655-20.598-30.657-1.727-3.537-3.369-7.159-5.054-10.738-4.844-10.317-9.815-20.972-16.259-30.615-12.426-18.571-27.169-30.615-45.112-36.89-7.372-2.568-14.911-4.8-22.198-6.948-9.351-2.779-18.997-5.643-28.222-9.222-12.636-4.969-28.642-12.297-40.9-25.772-13.731-15.076-21.903-33.268-25.02-55.63-2.864-19.708.632-37.268 10.53-53.818 4.802-7.959 10.446-14.95 15.838-21.392 15.164-17.898 27.59-37.058 37.741-53.482 5.307-8.717 11.625-18.823 18.828-28.256 8.719-11.623 21.398-18.319 34.666-18.319 4.423 0 8.846.716 13.184 2.19 22.914 7.496 40.437 21.94 53.537 44.217 3.707 6.359 7.203 12.97 10.572 19.455 5.645 10.697 11.457 21.772 18.534 31.92 12.678 18.193 28.263 32.89 41.869 44.933l4.338 3.748c13.858 12.213 28.222 24.762 41.911 37.648l3.201 2.99c11.036 10.317 22.535 21.013 35.761 28.972 13.985 8.381 28.643 12.676 43.554 12.676 5.055 0 10.151-.463 15.375-1.474 11.625-2.232 21.397-9.18 29.653-21.224 3.117-4.632 5.981-9.854 9.351-16.929l3.959-8.506c7.582-16.255 15.333-33.142 25.358-48.26 9.645-14.823 19.502-25.183 31.085-32.636C932.638 28.28 943.421 24.7 953.952 24.7c9.14 0 18.365 2.611 27.463 7.707 8.635 4.842 17.354 10.106 25.695 15.118 5.94 3.537 11.88 7.158 17.82 10.57 14.49 8.506 29.94 12.886 46.08 13.012 30.75 0 52.14-11.876 65.54-36.426 4.76-8.802 7.37-19.077 8.38-32.342 1.05-15.286-.04-28.467-3.45-40.469-5.65-19.413-18.45-31.625-38.17-36.51-11.37-2.78-22.99-3.496-34.32-4.212l-6.28-.42c-5.22-.253-10.66-.295-15.8-.295-12.08-.085-24.59-.169-36.64-3.496-21.526-5.853-37.743-19.539-48.189-40.763-1.937-3.959-3.707-8.128-5.434-12.129-.294-.8-.631-1.516-.926-2.274h40.984s.463.295.716.506c1.264.842 2.317 1.558 3.029 2.695 6.66 11.159 16.85 18.613 31.17 22.698 9.35 2.695 18.87 4.085 28.35 4.085 12.85 0 26.03-2.443 39.22-7.37 8.76-3.369 15.2-9.601 19.29-18.445.71-1.768 1.89-3.074 3.54-4.169h41.57c1.26 1.39 1.6 3.496 1.98 5.685 3.37 20.13 14.95 33.31 35.34 40.47 5.98 2.105 12.05 3.958 18.2 5.853 6.48 2.021 13.14 4.127 19.58 6.4 25.91 9.181 46 24.762 61.37 47.545 4.22 6.358 8.64 12.549 13.1 18.781l5.27 7.496c1.09 1.474 1.73 3.2 2.4 5.011.51 1.348.97 2.695 1.73 4v72.516c-16.85 14.487-36.14 31.584-53.08 51.124-8.84 10.317-17.39 21.055-25.77 31.499-2.91 3.664-5.86 7.285-8.77 10.949-12.3 15.328-24.59 28.72-37.53 40.974l-7.28 6.738c-15.21 14.065-30.96 28.552-43.85 45.775-17.69 23.793-29.36 52.008-34.79 83.928-.51 3.032-1.06 6.064-1.52 9.054-1.81 11.538-3.79 23.456-8.09 34.447-2.61 6.527-7.71 14.318-17.73 14.318-2.06 0-4.38-.379-6.66-1.053-13.35-3.958-23.25-12.423-30.07-25.73-6.61-12.97-10.32-27.962-11.75-47.123-2.19-28.13-6.49-60.893-22.41-90.707-18.029-33.479-39.427-52.597-67.311-60.262-8.804-2.358-17.986-3.537-27.169-3.537-7.834 0-15.795.884-23.672 2.611-19.081 4.379-29.527 16.381-32.686 37.732-2.022 13.602-2.949 28.762-2.865 46.406.295 37.269-7.413 72.095-23.672 106.458l-2.991 6.359c-6.823 14.612-13.942 29.73-23.419 42.953-10.825 15.202-25.357 25.646-44.228 31.92-2.611.927-5.181 1.348-7.497 1.348m0 2.106c2.611 0 5.307-.422 8.255-1.348 18.155-6.064 33.571-16.423 45.239-32.721 10.952-15.328 18.533-32.636 26.579-49.649 15.964-33.773 24.177-69.441 23.84-107.426-.084-15.286.59-30.741 2.865-46.027 3.032-20.172 12.299-31.71 30.959-35.963a106.58 106.58 0 0 1 23.251-2.569c8.972 0 17.817 1.137 26.579 3.495 30.875 8.464 50.798 30.868 66.003 59.208 14.91 27.878 19.76 58.493 22.12 89.824 1.26 16.718 4.38 32.889 12 47.923 7.08 13.77 17.48 22.74 31.38 26.867 2.61.8 5.01 1.094 7.29 1.094 8.93 0 15.75-5.558 19.71-15.623 5.52-14.065 7.08-29.183 9.69-43.964 5.22-30.699 16.26-58.535 34.41-83.001 14.74-19.751 33.11-35.711 50.88-52.218 13.57-12.76 25.95-26.531 37.75-41.185 11.45-14.234 22.61-28.552 34.53-42.364 16.35-18.908 34.84-35.458 53.54-51.545V2.592c-1.73-3.074-2.36-6.738-4.55-9.77-6.15-8.76-12.34-17.35-18.32-26.235-15.84-23.457-36.77-39.248-62.42-48.386-12.56-4.422-25.36-7.917-37.87-12.255-18.11-6.316-30.46-18.108-33.91-38.784-.51-2.78-1.01-5.559-3.24-7.454h-43.01c-2.23 1.305-3.87 2.99-4.97 5.474-3.75 8.339-9.86 14.108-18.03 17.308-12.72 4.675-25.57 7.201-38.5 7.201-9.18 0-18.45-1.305-27.75-3.958-12.26-3.495-22.96-9.938-30-21.73-1.26-2.021-3.197-2.99-4.882-4.295h-44.943c2.569 5.853 4.97 11.791 7.75 17.518 10.657 21.73 27 35.795 49.535 41.901 17.44 4.8 35.26 2.906 52.86 3.874 13.57.927 27 1.348 40.14 4.59 18.37 4.464 31.05 15.582 36.61 34.995 3.75 13.055 4.34 26.446 3.33 39.711-.8 10.991-2.87 21.73-8.09 31.5-14.24 26.108-36.98 35.288-63.69 35.288h-.21c-15.63-.168-30.88-4.59-44.86-12.717-14.53-8.507-28.853-17.476-43.553-25.772-9.562-5.39-19.039-7.96-28.516-7.96-11.163 0-22.199 3.664-33.15 10.781-13.1 8.465-23.083 20.003-31.76 33.268-11.752 17.813-20.302 37.606-29.358 57.019-2.696 5.685-5.645 11.37-9.225 16.634-7.161 10.317-16.006 17.939-28.306 20.34-5.097.926-10.067 1.389-14.953 1.389-14.869 0-28.98-4.295-42.501-12.338-14.195-8.591-26.283-20.34-38.541-31.71-15.164-14.192-30.706-27.794-46.249-41.438-15.206-13.391-29.738-27.456-41.616-44.511-11.163-16.129-19.081-34.321-28.98-51.25-13.142-22.277-31.17-37.437-54.716-45.143-4.633-1.516-9.267-2.232-13.858-2.232-13.984 0-27.21 6.864-36.393 19.076-6.95 9.139-13.015 18.824-18.912 28.468-11.542 18.613-23.504 36.636-37.531 53.228-5.77 6.822-11.372 13.813-16.048 21.645-10.151 16.887-13.732 35.248-10.867 55.208 3.075 21.772 11.162 40.891 25.61 56.767 11.541 12.633 26.241 20.213 41.658 26.277 16.511 6.485 33.739 10.317 50.461 16.213 18.66 6.527 32.813 19.245 44.059 36.089 8.551 12.718 14.406 27.204 21.188 41.101 5.56 11.37 12.341 21.898 20.976 31.162 13.521 14.697 29.78 25.772 44.27 39.164 12.215 11.328 23.462 23.456 34.034 36.384 12.257 14.823 22.788 31.12 33.95 46.954 5.981 8.507 12.805 12.718 20.766 12.718l.211-.084ZM178.199 441.013c-17.775 0-35.929-5.643-55.474-17.097-9.561-5.727-18.786-12.423-27.632-18.866-6.57-4.801-13.31-9.686-20.218-14.192-21.23-13.938-45.617-23.077-79.02-29.73l-3.538-.716h-.042v-53.945c12.889 7.58 26.284 14.402 39.257 21.014 7.75 3.958 15.543 7.917 23.209 12.002 17.733 9.559 34.792 21.982 55.39 40.511 14.827 13.391 29.738 26.024 48.608 32.804 6.571 2.317 13.016 3.453 19.25 3.453 21.692 0 38.962-13.98 47.344-38.363 6.655-19.708 7.035-40.469 1.095-65.23-6.318-26.025-8.761-52.176-7.287-77.738 1.812-31.499 3.791-59.84 9.141-88.012 2.822-14.655 8.677-29.142 17.354-42.996 1.811-2.99 3.706-5.938 5.56-8.928 8.551-13.391 17.354-27.246 23.714-42.49 5.434-13.139 10.531-26.657 15.501-39.669l3.201-8.549c9.351-24.593 25.905-42.28 49.24-52.344 23.209-10.022 42.754-22.824 59.771-39.248 14.279-13.939 29.064-29.52 39.678-48.933.379-.59.632-1.263.885-1.895h57.327c-3.875 13.349-11.457 24.467-23.251 33.9l-6.95 5.516c-16.68 13.307-33.992 26.993-48.65 43.838-10.657 12.212-20.514 25.225-30.159 39.88C380.93.991 367.325 15.31 349.844 28.87c-17.017 13.138-30.664 29.435-43.174 44.974-10.362 12.76-20.808 25.646-31.044 38.616-17.522 21.983-28.432 48.176-33.36 79.97-2.148 13.518-3.454 27.246-3.959 40.974-.674 18.782 1.685 38.195 7.245 61.188 4.001 16.255 7.581 33.773 6.36 52.344-1.896 30.447-10.53 54.745-26.579 74.116-8.803 10.823-21.018 17.308-36.182 19.203a85.016 85.016 0 0 1-10.825.716m0 2.105a90.6 90.6 0 0 0 11.12-.673c14.869-1.895 27.842-8.044 37.614-19.961 17.607-21.393 25.357-47.333 27.042-75.379 1.138-18.108-2.148-35.542-6.402-52.976-4.844-19.793-7.919-39.922-7.203-60.599a348.405 348.405 0 0 1 3.917-40.763c4.592-29.394 14.743-56.093 32.939-79.001 10.236-12.928 20.64-25.815 31.044-38.574 13.142-16.297 26.536-32.047 42.795-44.68 16.217-12.55 30.496-26.783 42.122-44.386 9.182-13.939 19.039-27.12 29.99-39.668 16.47-18.993 36.099-33.732 55.306-49.102 12.047-9.644 20.808-21.898 24.683-37.69h-61.581c-.38.926-.674 2.021-1.18 2.906-10.278 18.781-24.388 33.984-39.384 48.554-17.564 16.929-37.319 29.394-59.096 38.785-23.841 10.317-40.732 28.088-50.377 53.607-6.108 16.045-12.089 32.215-18.66 48.134-7.666 18.36-18.786 34.447-29.148 51.081-8.383 13.391-14.616 27.962-17.607 43.753-5.518 29.099-7.456 58.746-9.183 88.308-1.516 26.446 1.096 52.555 7.372 78.285 5.096 21.392 6.192 42.658-1.053 64.051-8.088 23.667-24.81 36.974-45.323 36.974-5.897 0-12.089-1.137-18.492-3.327-18.491-6.654-33.444-19.287-47.934-32.426-17.354-15.539-35.466-29.815-55.81-40.764-21.778-11.664-44.27-22.108-65.584-34.868v59.377c1.769.421 3.58.8 5.307 1.137 27.463 5.433 54.126 13.602 78.262 29.394 16.217 10.654 31.254 23.161 47.934 33.057 17.734 10.486 36.393 17.434 56.57 17.434ZM-7.768 222.497v-45.059c30.707-3.032 65.668-8.254 95.11-29.646 36.815-26.909 58.718-63.715 65.163-109.321 1.179-8.76 2.106-17.729 2.991-26.446 1.263-12.507 2.485-25.435 4.844-37.858 4.338-23.077 11.962-39.29 23.882-51.04 8.93-8.548 19.461-15.201 29.738-21.686l3.075-1.938c17.017-10.696 28.474-21.013 37.193-33.604.843-1.18 1.39-2.485 1.938-3.748.042-.085.084-.253.169-.379h32.222c-4.212 21.224-16.174 37.731-37.488 51.839-2.864 1.895-5.728 3.663-8.592 5.474-10.278 6.57-20.893 13.307-30.286 22.109-9.772 9.054-17.101 21.055-23.167 37.816-5.728 15.539-8.171 32.004-10.572 47.964-.59 3.959-1.138 7.917-1.769 11.834-3.37 20.592-7.666 42.28-19.671 60.724-11.247 17.392-25.989 31.963-40.142 45.986l-1.053 1.053c-13.942 13.644-30.159 25.266-49.577 35.457l-14.406 7.454c-19.502 10.107-39.636 20.55-58.717 32.636a3.89 3.89 0 0 1-.842.421m-2.149 3.117c1.39-.59 2.907-1.011 4.128-1.769 23.588-14.907 48.398-27.12 72.955-40.006 18.154-9.475 35.087-21.055 50.124-35.794 14.911-14.739 29.822-29.352 41.448-47.376 12.089-18.613 16.427-39.837 19.966-61.524 3.243-20.003 5.223-40.3 12.257-59.42 5.055-13.98 11.794-26.909 22.619-36.973 11.794-11.033 25.4-18.697 38.584-27.373 19.923-13.138 34.624-30.151 38.92-55.713h-36.14c-.843 1.727-1.475 3.538-2.486 5.054-9.73 14.065-22.577 24.256-36.561 33.015-11.541 7.285-23.209 14.318-33.108 23.92-14.279 13.98-20.808 32.425-24.514 52.133-4.002 21.224-4.844 43.08-7.877 64.388-6.529 46.154-28.685 81.865-64.278 107.932-28.768 20.887-62.213 26.235-95.995 29.435v50.113h-.084l.042-.042Z" fill="#EEECF1"/><path d="M178.41 414.82c-4.844 0-10.025-.843-15.291-2.401-15.416-4.59-30.243-13.77-45.28-28.046-26.284-24.93-56.485-45.27-92.33-62.03-8.762-4.085-18.113-9.054-28.56-15.328-2.147-1.306-3.58-2.822-4.675-4.843v-75.885c1.264-1.937 2.991-3.495 5.476-5.053 21.945-13.392 45.323-25.435 65.373-35.668 20.808-10.528 37.993-22.488 52.736-36.511 11.794-11.328 25.357-24.93 37.025-40.343 11.12-14.697 18.575-32.341 22.788-54.028 1.6-8.17 2.864-16.508 4.127-24.593 1.77-11.623 3.581-23.625 6.361-35.08 5.054-20.97 12.426-36.3 23.04-48.259 8.046-9.138 18.197-16.002 27.885-22.277 1.98-1.263 4.001-2.484 5.981-3.748 8.467-5.264 17.228-10.738 24.725-18.107 10.868-10.486 17.902-22.193 21.525-35.921.673-2.274 1.474-3.79 2.569-4.885h44.522c1.601 1.052 2.78 2.358 3.665 4.211 3.285 6.99 9.14 10.949 16.133 10.949a19.34 19.34 0 0 0 5.897-.927c5.897-1.684 11.035-4.548 15.711-8.717l.8-.674c2.233-1.895 4.381-3.663 6.824-4.842h55.011c.379 1.01-.085 1.895-1.138 3.537-.252.463-.505.884-.8 1.305-4.128 7.496-9.351 14.824-15.964 22.319-21.861 25.436-42.459 42.533-64.783 53.86l-3.538 1.77c-4.634 2.274-9.393 4.632-14.195 6.737-23.799 10.36-40.268 29.31-50.546 57.903l-1.179 3.454c-4.676 13.012-9.562 26.488-15.206 39.29-7.456 17.223-17.144 32.678-26.537 46.827-12.931 19.54-20.682 42.701-23.799 70.789-1.937 18.192-4.127 39.669-5.433 61.272-1.601 27.794.59 54.366 6.571 79.085 2.906 12.086 5.518 25.183 4.844 38.574-1.18 22.572-6.95 38.785-18.028 51.081-9.056 10.065-19.924 15.245-32.265 15.245m0 2.105c12.636 0 24.093-5.011 33.823-15.918 13.142-14.486 17.565-33.015 18.618-52.386.674-13.35-1.811-26.362-4.886-39.206-6.276-25.772-8.087-52.007-6.529-78.453 1.264-20.424 3.243-40.68 5.434-61.146 2.78-25.225 9.477-48.765 23.419-69.821 9.941-15.033 19.46-30.32 26.747-47.164 6.15-13.981 11.247-28.425 16.47-42.87 9.267-25.982 24.683-45.943 49.324-56.681 6.066-2.653 11.879-5.643 17.818-8.549 25.567-12.928 46.46-32.257 65.457-54.366 6.107-6.948 11.667-14.444 16.216-22.698 1.264-2.274 3.749-4.8 1.264-8.043h-56.696c-3.201 1.474-5.77 3.748-8.508 5.98-4.339 3.916-9.225 6.738-14.911 8.338-1.811.589-3.58.842-5.307.842-5.982 0-11.205-3.327-14.195-9.686-1.18-2.484-2.78-4.169-4.971-5.474h-45.954c-2.022 1.6-3.075 3.874-3.791 6.485-3.707 13.813-10.952 25.267-20.977 34.995-9.14 8.843-19.923 14.865-30.412 21.603-10.235 6.57-20.218 13.391-28.347 22.614-12.3 13.854-19.081 30.91-23.504 49.143-4.76 19.666-6.613 40.006-10.488 59.799-3.791 19.455-10.531 37.437-22.409 53.102-11.036 14.655-23.672 27.541-36.772 40.09-15.585 14.907-33.318 26.572-52.189 36.131-22.156 11.244-44.227 22.741-65.54 35.753-2.612 1.6-4.845 3.495-6.53 6.275v77.063c1.348 2.78 3.244 4.633 5.729 6.106 9.393 5.643 18.997 10.949 28.769 15.497 33.529 15.708 64.362 35.627 91.783 61.693 13.394 12.718 28.474 23.288 46.081 28.552 5.475 1.558 10.783 2.4 15.922 2.4h.042ZM758.465 371.656c-14.49 0-26.747-7.454-39.005-15.75-15.585-10.865-30.243-23.667-44.311-36.132l-6.403-5.643c-20.134-17.476-35.719-39.458-47.724-67.083-8.719-19.75-17.943-34.447-29.021-46.28-12.89-13.602-27.969-23.456-46.081-30.152-6.108-2.358-12.3-4.337-18.365-6.275-8.088-2.568-16.386-5.179-24.304-8.59-18.492-7.875-28.222-18.782-31.507-35.247-2.022-10.149-.295-20.509 5.56-33.479 13.436-29.73 26.536-52.934 41.279-72.979 6.529-8.843 14.237-15.076 22.956-18.445 3.117-1.179 6.318-1.81 9.393-1.81 6.782 0 13.563 2.863 21.272 9.011 6.908 5.433 11.878 13.097 16.722 20.424l.632.927c13.521 21.098 31.843 40.258 57.706 60.177 24.178 18.655 44.101 37.016 60.824 56.219 7.918 9.011 15.964 17.686 24.809 27.33 14.532 15.581 31.97 28.972 51.852 39.879 5.391 2.906 10.825 6.191 17.312 10.318 12.426 7.874 20.218 20.129 24.093 37.437 7.835 35.668-1.348 68.178-27.252 96.771-11.457 12.634-24.768 19.119-39.595 19.414h-.842m0 2.147h.927c16.469-.252 30.159-8.085 41.068-20.129 24.936-27.456 36.183-60.219 27.758-98.583-3.538-16.17-11.078-29.941-25.02-38.826-5.728-3.664-11.457-7.159-17.48-10.36-18.913-10.359-36.183-23.287-51.262-39.458-8.298-8.97-16.638-17.981-24.768-27.246-18.407-21.098-39.173-39.5-61.16-56.471-21.777-16.845-41.827-35.668-57.201-59.63-5.223-7.917-10.362-16.002-17.776-21.898-6.992-5.558-14.447-9.475-22.619-9.475-3.285 0-6.655.632-10.151 1.98-9.646 3.747-17.481 10.485-23.883 19.202-16.596 22.572-29.822 47.502-41.49 73.358-4.97 10.865-8.256 22.403-5.728 34.784 3.875 19.456 16.511 29.857 32.728 36.805 13.985 5.98 28.559 9.476 42.753 14.866 17.102 6.316 32.223 15.834 45.281 29.604 12.468 13.307 21.272 28.973 28.685 45.733 11.415 26.362 26.958 49.312 48.229 67.841 16.596 14.487 32.897 29.394 50.925 41.859 12.257 8.338 24.978 16.171 40.184 16.171v-.127ZM1077.91 285.453c-2.9 0-5.51-1.389-8.55-4.674-6.78-7.285-11.45-15.96-16.38-25.056l-2.23-4.127c-11.63-21.098-22.03-38.406-32.69-54.492-18.618-27.794-41.11-46.028-68.574-55.798-7.582-2.61-14.447-6.148-20.513-10.527-8.171-5.938-11.583-15.371-9.056-25.225 4.76-18.824 23.293-34.11 41.406-34.11 11.457.379 22.198 4.548 32.012 8.97 14.615 6.527 29.735 13.307 46.085 15.412 9.39 1.18 18.4 1.811 26.91 1.811 22.33 0 42.12-4.169 60.49-12.76 23.75-11.243 39.09-31.625 46.84-62.24 1.09-4.38 2.15-8.76 3.11-13.139 1.98-8.38 4.01-17.097 6.53-25.562 6.78-22.571 23.84-25.982 33.45-25.982 3.66 0 7.41.463 11.12 1.39 27.33 6.653 46.88 30.699 50.92 62.703 1.86 14.697-2.31 28.678-13.56 45.354-10.66 15.75-22.41 30.952-33.78 45.733-8.13 10.528-16.51 21.435-24.47 32.426-14.71 20.297-32.06 38.489-48.74 56.134-4.38 4.548-8.68 9.054-12.97 13.644-14.32 15.581-27.47 31.963-39.72 47.375l-2.66 3.327c-5.09 6.612-10.44 13.434-17.94 17.308-2.7 1.347-5.01 1.979-6.99 1.979m0 2.19c2.44 0 5.01-.842 8-2.274 9.22-4.674 15-13.349 21.27-21.182 12.76-16.171 25.7-32.173 39.64-47.291 21.23-22.698 43.38-44.47 61.87-70.031 19.09-26.446 40.06-51.123 58.3-78.201 9.35-13.813 16.22-28.972 13.86-46.828-3.88-30.151-21.86-57.019-52.53-64.556-3.87-.927-7.75-1.474-11.62-1.474-15.29 0-29.61 7.959-35.47 27.456-3.87 12.886-6.49 25.857-9.69 38.785-6.9 27.372-20.85 49.06-45.66 60.85-19.2 9.013-39.21 12.55-59.56 12.55-8.8 0-17.69-.632-26.58-1.81-15.96-2.106-30.74-8.676-45.528-15.203-10.489-4.759-21.23-8.801-32.855-9.18-18.997 0-38.541 16.002-43.47 35.71-2.78 10.823 1.053 21.056 9.857 27.457 6.571 4.758 13.647 8.296 21.061 10.822 28.432 10.065 50.251 29.31 67.475 54.955 11.67 17.561 22.37 35.753 32.61 54.324 5.68 10.359 10.9 21.014 18.91 29.604 3.45 3.706 6.57 5.433 10.11 5.433v.084Z" fill="#EEECF1"/><path d="M186.286 658.138c-7.203-29.856-23.967-53.439-42.08-76.895-7.961-10.359-16.301-21.687-23.377-34.194-4.17-7.791-6.613-15.329-7.456-23.161-1.39-11.834 7.582-18.024 13.016-20.761 8.803-4.296 18.576-5.391 28.306-6.528 6.823-.8 13.858-1.305 20.639-1.81 15.122-1.137 30.749-2.274 45.871-6.486 12.973-3.663 24.304-9.896 33.57-18.444 7.245-6.864 12.047-15.834 15.08-21.982 10.572-21.688 17.059-45.354 23.377-68.305l1.896-6.99c4.76-16.803 7.834-32.721 9.435-48.765 1.137-11.665.379-23.877-2.401-36.216-.927-4.169-1.98-8.338-2.99-12.507-2.233-9.349-4.55-18.992-6.277-28.467-3.875-21.603-2.19-40.343 5.181-57.398 7.287-17.224 23.378-34.574 42.754-34.574.632 0 1.263 0 1.895.043 9.941.463 18.66 4.969 27.379 14.065 6.529 6.78 12.931 13.939 19.123 20.845 2.78 3.116 5.56 6.274 8.383 9.391 12.762 13.981 28.432 26.024 47.85 36.721 3.496 1.937 6.992 3.79 10.488 5.727 9.814 5.39 19.923 10.907 29.569 16.844 8.298 5.18 15.543 11.581 21.524 19.077 7.498 9.475 10.657 21.392 9.815 37.437-.716 14.949-4.381 30.025-11.879 48.933-7.708 19.329-20.639 31.752-38.541 36.89-21.777 6.401-46.502 13.602-68.616 26.656-15.964 9.391-31.17 20.593-45.28 33.352-27.632 25.141-47.092 57.103-64.615 87.676-11.331 19.498-21.777 39.711-31.296 60.261-8.382 18.487-13.942 34.279-17.228 49.481h-53.242m-1.684 2.148h56.611c3.707-17.771 10.025-34.405 17.396-50.702 9.477-20.55 19.924-40.595 31.17-60.093 18.197-31.71 37.32-62.704 64.235-87.17 13.943-12.634 28.854-23.667 44.902-33.058 21.44-12.633 44.733-19.582 68.153-26.488 19.333-5.516 32.223-18.866 39.889-38.153 6.318-15.834 11.204-32.131 12.046-49.649.717-14.318-1.39-27.625-10.277-38.911-6.318-7.832-13.774-14.402-22.072-19.539-13.142-8.086-26.747-15.161-40.142-22.614-17.48-9.602-33.571-21.182-47.344-36.3-9.141-10.065-18.113-20.424-27.548-30.236-7.919-8.296-17.143-14.192-28.853-14.739-.674-.042-1.348-.042-1.98-.042-19.923 0-36.772 17.139-44.733 35.879-8.087 18.781-8.845 38.616-5.265 58.577 2.443 13.77 6.108 27.372 9.225 41.016 2.611 11.665 3.538 23.666 2.358 35.626-1.684 16.466-4.886 32.594-9.351 48.386-7.034 25.477-13.563 51.207-25.146 74.916-3.875 7.917-8.382 15.497-14.616 21.351-9.436 8.717-20.556 14.486-32.687 17.939-21.692 6.064-44.101 5.727-66.215 8.254-9.856 1.137-19.755 2.274-28.979 6.78-8.046 3.874-15.585 11.243-14.237 22.866.926 8.675 3.706 16.424 7.708 23.877 6.866 12.297 15.079 23.498 23.588 34.447 18.028 23.498 35.129 47.46 42.079 77.78h.085ZM772.028 60.747c-.968 0-1.979-.042-2.906-.168-23.588-2.611-45.112-12.633-65.794-30.53-24.262-20.846-34.371-50.324-41.7-79.044l-3.538-13.77c-6.361-24.593-12.932-49.986-17.228-75.422h186.683c-1.98 5.096-5.013 9.728-7.919 14.234-1.011 1.516-1.98 2.99-2.907 4.548-9.982 16.255-16.385 35.458-19.502 58.661-1.769 13.223-3.454 27.415-2.906 41.817.253 6.99.842 14.023 1.348 20.887.421 5.77.884 11.623 1.137 17.476.632 13.728.295 25.814-9.477 35.205-4.339 4.127-9.478 6.148-15.248 6.148m0 2.148c5.897 0 11.625-1.937 16.68-6.738 10.741-10.275 10.741-23.456 10.235-36.847-.674-12.886-2.064-25.604-2.611-38.364-.421-13.812 1.053-27.624 2.99-41.395 2.78-20.592 8.383-40.174 19.166-57.861 4.38-7.032 9.561-13.728 12.004-21.982H638.082c.211.674.505 1.348.632 2.021 5.097 30.405 13.226 60.051 20.85 89.824 7.835 30.488 18.365 59.419 42.416 80.138 19.671 17.013 41.701 28.256 67.016 31.078 1.053.084 2.106.168 3.117.168l-.042-.042ZM1261.14 423.916c-22.62 0-42.88-4.801-61.83-14.613-20.43-10.485-31.59-33.689-29.19-60.598 3.07-33.9 32.01-59.966 57.66-67.252 11.38-3.242 22.88-4.8 35.22-4.8 13.43 0 27.63 1.895 43.34 5.853 5.48 1.348 10.95 2.822 16.47 4.169v123.85c-4.13 1.305-8.17 2.821-12.09 4.295-7.83 2.905-15.79 5.895-23.97 7.159-8.76 1.305-17.35 1.937-25.56 1.937m0 2.105c8.55 0 17.14-.631 25.86-1.895 13.14-2.021 25.19-8.127 37.91-12.001V285.033c-6.07-1.516-12.05-3.032-18.07-4.59-14.62-3.664-29.19-5.938-43.85-5.938-11.88 0-23.84 1.516-35.76 4.885-28.73 8.254-56.19 35.921-59.18 69.147-2.4 26.151 8.13 51.291 30.37 62.703 20.13 10.444 41.19 14.739 62.8 14.739l-.08.042ZM31.658 112.292c-8.719 0-17.565-1.516-24.262-2.821-4.97-1.011-10.025-1.727-14.953-2.443h-.21v-36.89a1.51 1.51 0 0 1 1.095-.42c.631 0 1.474.252 2.358.589l.59.168c9.857 3.117 18.786 5.854 28.264 7.201 2.99.421 5.644.632 8.087.632 2.232 0 4.296-.168 6.276-.505 18.323-2.99 30.496-17.897 31.17-37.9 1.053-32.258-17.817-56.556-48.06-61.946-5.645-.927-11.247-1.01-17.06-1.01h-2.57c-1.684 0-3.327 0-4.97-.043h-.716c-2.148-.084-3.454-.168-4.422-1.18V-65.08h2.19c20.345 0 37.235.379 54.295 5.053 24.556 6.612 39.93 23.035 46.965 50.155 6.487 25.183 6.992 47.038 1.6 66.789-8.297 31.162-26.367 49.522-53.746 54.492-3.791.673-7.666 1.01-11.879 1.01m0 2.148c4.128 0 8.172-.295 12.258-1.053 29.99-5.432 47.513-26.109 55.474-56.008 6.107-22.572 4.128-45.48-1.6-67.883-7.035-27.12-22.789-44.765-48.483-51.713-18.028-4.97-36.393-5.095-54.842-5.095h-4.423v43.669c1.896 2.653 4.55 2.485 7.203 2.61 1.685.043 3.328.043 5.055.043H4.91c5.56 0 11.162.042 16.68.926 28.98 5.18 47.303 28.552 46.292 59.799-.632 19.076-12.005 33.015-29.401 35.878a39.3 39.3 0 0 1-5.897.463c-2.612 0-5.181-.252-7.75-.631-9.478-1.348-18.702-4.17-27.97-7.075-1.179-.379-2.4-.842-3.537-.842-1.138 0-2.19.421-3.244 1.727v39.584c5.687.842 11.33 1.6 16.891 2.695 8.171 1.601 16.427 2.864 24.683 2.864l.042.042ZM908.797 557.072h-2.864c-8.551-.379-10.657-6.485-10.825-11.581-.295-8.464 1.769-16.171 3.959-24.382.632-2.569 1.348-5.096 1.938-7.623 1.179-5.306 2.569-10.527 3.917-15.749 2.696-10.149 5.434-20.635 7.161-31.373 2.401-14.992 3.538-27.457 3.58-39.164v-11.58c-.126-20.087-.126-40.764 1.179-61.062.59-8.843.506-17.813.506-26.488-.042-7.917-.042-16.128.379-24.129l.126-2.275c.59-10.359 1.138-21.013 4.802-30.825 3.96-10.317 10.868-16.213 18.829-16.213 3.791 0 7.876 1.39 11.625 4.001 5.307 3.579 9.688 8.759 13.016 15.202 5.897 11.623 7.202 24.088 7.708 34.784.253 4.969.211 9.854.168 16.002-.042 3.243-.042 6.654-.042 10.486-.926 22.15 1.475 42.448 7.077 60.219 7.034 21.982 18.702 43.206 35.764 64.978 6.48 8.254 12.93 16.255 19.41 24.382l1.98 2.569c2.19 2.779 3.96 5.98 5.78 10.275 4.21 10.107 2.65 14.739-7.17 20.887-3.49 2.148-7.91 3.201-11.83 3.917-24.26 5.432-47.725 14.318-67.438 22.319-17.565 7.075-32.307 12.423-48.735 12.423Zm0 2.189c17.481 0 33.529-6.148 49.535-12.633 21.946-8.843 44.058-17.055 67.098-22.193 4.3-.842 8.76-1.852 12.51-4.169 11-6.948 12.43-12.97 7.96-23.582-1.6-3.874-3.49-7.496-6.06-10.738a7582.12 7582.12 0 0 1-21.44-26.994c-15.12-19.287-27.761-40.216-35.427-64.219-6.486-20.551-7.708-41.817-7.034-59.546 0-11.37.295-18.992 0-26.656-.632-12.339-2.359-24.467-8.045-35.627-3.328-6.569-7.919-12.128-13.648-16.044-4.296-2.906-8.634-4.38-12.889-4.38-8.508 0-16.343 5.854-20.808 17.603-4.043 10.781-4.423 22.403-5.012 33.731-.927 16.845.084 33.605-.927 50.576-1.558 24.256-1.221 48.554-1.221 72.768-.043 13.097-1.517 25.983-3.581 38.827-2.485 15.96-7.287 31.204-10.994 46.912-2.569 10.738-6.402 21.182-5.939 32.636.379 8.338 4.971 13.265 12.889 13.56.969.126 1.98.126 2.991.126l.042.042Z" fill="#EEECF1"/><path d="M33.553 76.581c-11.794 0-23.293-3.58-34.455-7.033l-1.727-.505c-1.727-.505-3.37-1.01-5.097-1.39V-21.37c1.98.042 3.917.042 5.897.042h3.96c8.34 0 16.511.169 24.556 1.937C40.293-16.359 52.55-7.052 60.258 6.171c8.298 14.233 10.446 31.036 5.897 46.07-4.422 14.275-16.511 23.877-30.748 24.34-.632 0-1.264.042-1.812.042m0 2.148c.632 0 1.264-.042 1.896-.042 15.08-.506 28.053-10.739 32.728-25.857C77.823 21.12 57.984-14.59 27.193-21.454c-8.34-1.895-16.68-1.98-25.02-1.98h-3.96c-2.653 0-5.391 0-8.045-.084V69.38c2.275.59 4.423 1.095 6.613 1.769 12.089 3.706 24.094 7.664 36.814 7.664v-.042ZM327.604 432.886c-7.581 0-11.541-5.222-11.836-15.539-.379-11.96 1.769-23.625 4.128-34.405 2.443-10.991 5.644-21.94 8.761-32.51 2.78-9.391 5.645-19.203 7.961-28.973 5.013-20.971 5.729-42.49 2.149-65.862-1.306-7.58-1.769-13.812-1.517-19.708.421-9.812 4.886-15.707 12.089-15.707 2.57 0 5.392.716 8.34 2.147 5.013 2.401 10.025 5.475 16.133 9.854 13.816 9.812 28.727 18.193 43.09 26.278l7.245 4.085c9.814 5.516 22.409 13.307 32.813 24.719 7.961 8.928 11.583 17.982 10.909 28.046.59 13.434-3.959 25.141-14.111 36.721-9.814 11.033-21.692 19.329-34.118 27.583-18.112 12.212-36.814 24.804-55.853 36.974l-2.106 1.348c-8.804 5.642-17.944 11.412-28.053 14.191-2.191.505-4.212.842-5.981.842m0 2.19c1.979 0 4.17-.379 6.57-1.011 11.205-3.074 20.977-9.559 30.707-15.749 18.828-12.044 37.404-24.551 55.895-37.016 12.3-8.17 24.389-16.508 34.54-28.004 9.435-10.654 15.29-22.698 14.658-38.153.801-11.539-3.959-21.056-11.457-29.394-9.646-10.654-21.229-18.36-33.318-25.14-16.933-9.602-34.118-18.824-50.124-30.194-5.224-3.748-10.573-7.243-16.428-10.065-3.328-1.558-6.487-2.358-9.267-2.358-8.255 0-13.773 6.401-14.237 17.771-.295 6.78.421 13.518 1.559 20.129 3.327 21.898 3.033 43.417-2.148 65.02-4.886 20.677-12.089 40.596-16.723 61.483-2.485 11.538-4.549 23.161-4.17 35.036.379 11.581 5.223 17.603 13.985 17.603l-.042.042ZM1246.95 385.216c-8 0-15.63-1.516-22.79-4.59-11.54-4.801-18.11-13.855-19-26.278-.71-11.159 3.54-20.592 13.1-28.888 8.98-7.622 20.01-11.37 33.74-11.37h1.39c18.66.252 32.82 5.727 44.44 17.265 8.13 8.086 8.47 19.751.72 29.057-13.06 15.539-32.39 24.804-51.64 24.804m0 2.19c19.58 0 39.42-9.181 53.28-25.646 8.64-10.444 7.62-23.456-.88-31.921-13.19-13.096-28.65-17.602-45.96-17.813h-1.39c-12.8 0-24.81 3.074-35.09 11.876-9.18 7.875-14.7 17.813-13.85 30.53 1.01 13.813 8.63 23.372 20.3 28.173 7.58 3.243 15.58 4.801 23.63 4.801h-.04ZM170.786 367.487c-2.106 0-4.212-.421-6.403-1.137-12.51-4.169-22.998-12.423-30.749-19.119-13.984-12.043-28.979-22.992-43.469-33.604-8.34-6.064-17.017-12.423-25.357-18.824-5.181-4.001-9.435-8.296-12.974-12.97-12.552-17.056-11.625-32.721 3.202-50.829 6.15-7.454 13.731-13.223 20.976-18.487 20.85-15.118 42.122-30.32 62.719-44.975l2.907-2.105c8.087-5.685 15.079-9.349 22.071-11.454 2.275-.674 4.423-1.053 6.403-1.053 6.655 0 11.373 3.958 14.405 12.128 4.381 11.833 6.276 24.888 5.897 41.1-.295 13.939-1.263 28.047-2.148 41.817l-.674 10.023c-.8 13.012-.379 27.33 1.306 44.932.295 3.243.632 6.359 1.011 9.602 1.264 11.243 2.485 22.95.421 34.405-.842 4.758-2.106 8.296-4.001 11.243-3.791 6.064-9.351 9.391-15.417 9.391m0 2.106c6.866 0 12.973-3.664 17.27-10.318 2.359-3.663 3.538-7.832 4.296-12.043 2.78-14.95-.042-29.647-1.348-44.512-1.39-14.865-2.19-29.773-1.305-44.68 1.095-17.308 2.401-34.574 2.822-51.881.295-14.318-1.053-28.425-6.066-41.859-3.285-8.97-8.803-13.56-16.385-13.56-2.19 0-4.549.379-7.034 1.137-8.172 2.485-15.585 6.78-22.704 11.791-21.945 15.624-43.848 31.247-65.667 47.081-7.666 5.559-15.206 11.412-21.398 18.866-13.942 17.055-17.523 34.152-3.243 53.439 3.917 5.222 8.466 9.601 13.394 13.434 22.83 17.602 46.839 33.352 68.743 52.344 9.561 8.254 19.67 15.539 31.506 19.497 2.401.843 4.802 1.264 7.077 1.264h.042ZM750.126 322.553c-.422 0-.716 0-1.222-.042-7.666-.463-15.543-2.863-24.767-7.622a185.195 185.195 0 0 1-44.649-33.099c-12.426-12.507-22.114-28.762-29.738-49.692-10.109-28.509-24.978-55.46-44.228-80.011-4.128-5.222-7.076-11.412-9.814-17.35-2.864-6.275-3.917-10.781-.8-15.497 2.822-4.211 6.866-6.148 12.805-6.148.632 0 1.221 0 1.769.042 10.109.631 20.008 4.085 31.338 10.864 18.239 10.823 32.265 26.32 43.596 40.048 21.398 26.067 39.426 46.365 56.822 63.883a414.36 414.36 0 0 0 9.814 9.475c5.855 5.727 11.921 11.581 17.607 17.729 5.855 6.359 10.109 13.602 12.721 21.435 2.948 9.138 1.727 19.497-3.328 28.425-4.844 8.464-12.552 14.402-21.187 16.381l-.842.211c-2.106.505-4.086 1.053-6.066 1.053m0 2.189c2.485 0 4.971-.716 7.414-1.347 19.755-4.464 32.433-27.752 26.031-47.544-2.865-8.464-7.372-15.792-13.184-22.193-8.762-9.601-18.365-18.149-27.464-27.246-19.965-20.129-38.625-41.69-56.737-63.714-12.974-15.792-26.874-30.278-44.144-40.511-10.025-6.064-20.639-10.444-32.223-11.16-.631-.042-1.305-.042-1.937-.042-5.687 0-10.952 1.601-14.616 7.075-4.002 5.98-2.022 11.791.631 17.56 2.865 6.317 5.855 12.465 10.067 17.771 18.702 23.92 33.529 50.197 43.891 79.464 6.866 18.908 16.259 36.385 30.243 50.45 13.437 13.602 28.559 24.677 45.155 33.478 8.045 4.169 16.469 7.37 25.567 7.875.464.042.927.084 1.348.084h-.042ZM1083.69 212.601v-2.148c-7.97 0-15.38-4.8-24.69-16.002-6.99-8.464-12.21-19.287-15.41-32.257-2.49-9.939 1.13-18.866 9.81-23.877 11.25-6.612 23.76-9.181 35.55-11.244a456.047 456.047 0 0 1 47.68-5.727c.51-.042 1.06-.042 1.56-.042 3.29 0 6.45.589 10.11 1.263a9.92 9.92 0 0 1 6.36 4c1.6 2.401 2.19 5.475 1.56 8.675-1.52 7.707-4.8 15.16-10.7 24.088-11.33 17.392-25.65 32.131-42.67 43.754-7.29 5.053-13.6 7.453-19.21 7.453v2.148m0 0c6.07 0 12.68-2.484 20.39-7.833 17.19-11.791 31.72-26.53 43.26-44.385 4.97-7.58 9.18-15.581 10.95-24.803 1.48-7.412-2.69-13.981-9.69-15.161-3.45-.673-6.86-1.305-10.44-1.305-.51 0-1.14 0-1.73.042-16.01 1.095-31.97 2.99-47.93 5.769-12.47 2.19-24.81 4.843-36.19 11.539-9.43 5.432-13.6 15.16-10.82 26.235 3.03 12.128 8.04 23.667 15.84 33.1 8.97 10.864 17.01 16.802 26.32 16.802h.04Z" fill="#EEECF1"/><path d="M126.938 269.915v-2.148c-6.403 0-11.626-3.369-15.164-9.77-1.18-2.274-1.938-4.632-2.148-6.738.631-4.758 2.695-9.138 6.318-13.391 2.19-2.653 5.097-4.38 8.171-6.19l2.107-1.264c2.4-1.389 4.633-2.147 6.739-2.147 6.487 0 9.941 7.496 10.025 14.612.084 4.633-1.095 9.686-3.58 15.034-2.022 4.464-5.729 9.854-12.216 9.854l-.21 2.148m0 0h.252c6.529 0 11.163-4.59 14.069-11.16 2.401-5.095 3.917-10.528 3.791-15.96-.042-8.296-4.423-16.634-12.131-16.634-2.359 0-4.97.716-7.835 2.443-3.791 2.358-7.834 4.337-10.783 7.874-3.538 4.212-6.065 9.012-6.823 14.487.252 3.032 1.095 5.643 2.4 8.085 3.876 6.948 9.857 10.865 17.06 10.865Z" fill="#EEECF1"/></svg>